if (_typeface_js && _typeface_js.loadFace) _typeface_js.loadFace({"glyphs":{"S":{"x_min":0,"x_max":655.609375,"ha":678,"o":"m 34 193 l 0 75 q 75 49 30 64 q 166 20 119 34 q 258 -3 213 6 q 333 -13 302 -13 q 455 12 397 -13 q 558 82 513 38 q 629 183 602 125 q 655 306 655 240 q 634 401 655 358 q 580 476 613 443 q 504 533 547 508 q 416 573 461 557 q 341 600 383 586 q 264 634 300 614 q 204 684 229 654 q 180 759 180 714 q 195 818 180 791 q 236 862 211 844 q 290 890 261 880 q 350 900 320 900 q 410 890 383 900 q 459 869 437 880 q 500 848 481 858 q 537 838 519 838 q 575 856 559 838 q 590 895 590 873 q 561 947 590 924 q 494 983 533 969 q 415 1004 455 997 q 352 1011 375 1011 q 241 992 295 1011 q 145 938 187 973 q 77 854 102 904 q 51 744 51 805 q 86 619 51 665 q 175 543 122 572 q 289 495 227 514 q 404 453 351 476 q 492 397 456 431 q 527 304 527 363 q 511 224 527 261 q 468 158 495 186 q 402 113 440 129 q 322 98 365 98 q 239 111 276 98 q 162 142 202 125 q 136 152 156 143 q 94 168 116 160 q 54 184 72 177 q 34 193 36 192 "},"¦":{"x_min":15.28125,"x_max":754.234375,"ha":899,"o":"m 427 876 q 405 929 427 908 q 352 950 383 950 q 302 927 322 950 q 281 876 281 905 q 302 826 281 848 q 352 804 323 804 q 406 824 384 804 q 427 876 427 844 m 754 131 q 750 152 754 143 q 740 170 745 161 l 619 369 l 741 568 q 752 605 752 586 q 740 640 752 625 q 707 655 727 655 q 675 645 690 655 q 652 622 661 636 l 529 411 q 518 393 523 402 q 512 372 512 383 q 520 347 512 361 q 534 323 529 333 l 652 119 q 674 93 661 104 q 705 83 687 83 q 738 97 723 83 q 754 131 754 112 m 161 877 q 140 928 161 906 q 90 950 119 950 q 36 929 58 950 q 15 876 15 908 q 36 824 15 844 q 90 804 58 804 q 140 826 119 804 q 161 877 161 848 m 296 -1 l 296 694 q 279 734 296 716 q 239 752 262 752 q 195 736 213 752 q 178 694 178 720 l 178 -1 l 296 -1 m 459 -121 q 443 -80 459 -97 q 402 -64 426 -64 q 369 -71 390 -64 q 325 -89 348 -79 q 280 -108 301 -99 q 247 -124 259 -118 q 212 -108 234 -118 q 166 -89 190 -99 q 121 -71 143 -79 q 87 -64 100 -64 q 47 -80 63 -64 q 31 -119 31 -96 q 41 -151 31 -136 q 66 -172 51 -165 l 215 -230 q 229 -236 222 -233 q 245 -239 237 -239 q 264 -235 255 -239 q 281 -229 273 -232 l 426 -172 q 450 -151 441 -165 q 459 -121 459 -137 m 390 873 q 375 858 390 858 q 359 873 359 858 q 375 888 359 888 q 390 873 390 888 m 134 869 q 119 854 134 854 q 104 869 104 854 q 119 884 104 884 q 134 869 134 884 "},"/":{"x_min":15.28125,"x_max":530.59375,"ha":565,"o":"m 15 -9 l 102 -47 l 526 1022 q 530 1045 530 1031 q 518 1079 530 1065 q 486 1093 505 1093 q 457 1081 470 1093 q 437 1055 444 1070 l 15 -9 "},"y":{"x_min":2.78125,"x_max":588.9375,"ha":601,"o":"m 2 705 l 241 23 q 218 -33 234 6 q 186 -117 202 -73 q 156 -200 169 -161 q 143 -251 143 -238 q 161 -291 143 -276 q 202 -306 179 -306 q 239 -290 226 -306 q 259 -255 252 -275 q 282 -190 265 -238 q 324 -73 300 -141 q 377 76 348 -5 q 436 240 406 158 q 493 402 465 323 q 542 544 520 481 q 576 647 563 607 q 588 695 588 688 q 570 736 588 719 q 529 752 552 752 q 493 738 506 752 q 472 704 479 723 l 302 184 l 116 741 l 2 705 "},"":{"x_min":4.171875,"x_max":682,"ha":665,"o":"m 4 401 l 343 -324 l 682 401 l 343 1121 l 4 401 m 604 401 l 343 -158 l 81 401 l 343 955 l 604 401 "},"Á":{"x_min":13.890625,"x_max":866.734375,"ha":858,"o":"m 530 1245 q 488 1235 518 1245 q 423 1211 458 1225 q 357 1184 388 1197 q 312 1165 326 1170 q 285 1143 295 1158 q 275 1111 275 1129 q 291 1072 275 1087 q 331 1057 308 1057 q 374 1067 344 1057 q 438 1091 404 1077 q 503 1118 472 1105 q 548 1137 534 1132 q 575 1159 565 1144 q 586 1191 586 1173 q 570 1230 586 1215 q 530 1245 554 1245 m 425 1011 q 370 988 390 1011 q 340 936 351 965 l 20 76 q 13 43 13 58 q 29 2 13 19 q 70 -13 45 -13 q 105 -2 90 -13 q 127 27 120 9 l 198 215 l 659 215 l 747 -13 l 866 20 l 518 936 q 485 991 504 972 q 425 1011 466 1011 m 231 320 l 429 866 l 625 320 l 231 320 "},"g":{"x_min":51.390625,"x_max":695.890625,"ha":785,"o":"m 583 643 q 490 723 547 696 q 370 751 433 751 q 230 716 290 751 q 131 623 170 680 q 71 496 91 566 q 51 354 51 425 q 71 216 51 283 q 131 97 91 150 q 230 12 172 44 q 366 -19 288 -19 q 488 9 433 -19 q 580 94 544 37 q 581 79 581 87 q 581 65 581 72 q 569 -39 581 9 q 529 -125 556 -88 q 457 -183 501 -162 q 351 -205 413 -205 q 262 -192 305 -205 q 257 -243 259 -217 q 255 -295 255 -269 q 255 -299 255 -295 q 256 -304 255 -304 q 300 -312 277 -310 q 345 -313 323 -313 q 483 -287 419 -313 q 594 -214 547 -260 q 668 -104 641 -167 q 695 32 695 -41 l 695 693 q 679 734 695 715 q 640 753 663 753 q 603 742 615 753 q 586 716 591 732 q 582 680 581 700 q 583 643 583 661 m 388 89 q 288 114 329 89 q 222 179 247 139 q 186 270 197 219 q 175 371 175 321 q 186 469 175 419 q 223 557 198 518 q 288 620 248 596 q 386 645 329 645 q 479 620 434 645 q 536 569 515 599 q 567 506 556 540 q 579 434 577 472 q 581 358 581 396 q 571 267 581 314 q 538 180 561 219 q 478 115 515 140 q 388 89 441 89 "},"²":{"x_min":0,"x_max":0,"ha":0},"–":{"x_min":41.671875,"x_max":712.5625,"ha":756,"o":"m 86 515 q 54 501 68 515 q 41 470 41 488 q 53 438 41 452 q 84 425 65 425 l 670 425 q 701 438 690 425 q 712 470 712 452 q 700 501 712 487 q 670 515 688 515 l 86 515 "},"ë":{"x_min":51.390625,"x_max":705.609375,"ha":747,"o":"m 168 876 q 190 824 168 844 q 243 804 212 804 q 294 826 273 804 q 315 877 315 848 q 293 928 315 907 q 243 950 272 950 q 189 929 211 950 q 168 876 168 908 m 434 876 q 455 826 434 848 q 505 804 476 804 q 559 824 537 804 q 580 876 580 844 q 559 929 580 908 q 505 950 537 950 q 454 927 475 950 q 434 876 434 905 m 181 323 l 632 323 q 687 336 669 323 q 705 388 705 348 q 683 522 705 456 q 620 638 661 587 q 520 720 579 688 q 387 751 461 751 q 247 719 309 751 q 142 634 186 687 q 75 513 98 581 q 51 372 51 444 q 74 224 51 294 q 141 101 97 154 q 250 17 186 48 q 397 -13 313 -13 q 491 -2 448 -13 q 580 29 533 9 l 554 122 q 479 102 518 111 q 401 93 440 93 q 313 111 354 93 q 244 161 273 130 q 198 235 215 193 q 181 323 181 277 m 179 415 q 198 501 184 458 q 236 577 212 544 q 295 631 259 611 q 384 652 331 652 q 466 631 430 652 q 527 575 502 609 q 566 499 552 541 q 581 415 580 456 l 179 415 "},"ƒ":{"x_min":12.5,"x_max":513.9375,"ha":492,"o":"m 205 632 l 130 -105 q 127 -138 129 -122 q 121 -168 126 -155 q 104 -189 116 -181 q 69 -197 91 -197 q 40 -196 54 -197 q 12 -195 27 -195 l 12 -302 l 83 -302 q 197 -259 155 -302 q 245 -147 238 -216 l 323 630 q 367 629 341 630 q 416 631 393 627 q 454 647 438 634 q 470 690 470 661 q 454 724 470 713 q 415 737 437 734 q 370 738 393 740 q 334 737 347 737 q 344 832 338 784 q 354 926 350 879 q 368 955 355 947 q 398 966 380 963 q 436 968 416 969 q 474 972 456 968 q 502 986 491 976 q 513 1022 513 997 q 501 1055 513 1044 q 470 1070 488 1066 q 431 1074 451 1075 q 397 1073 411 1073 q 284 1030 327 1073 q 234 920 241 987 l 213 737 q 175 738 195 737 q 136 734 154 738 q 107 718 119 730 q 95 679 95 705 q 107 646 95 657 q 136 633 119 636 q 172 631 154 630 q 205 632 191 632 "},"Î":{"x_min":-66.671875,"x_max":363.921875,"ha":297,"o":"m 147 1233 q 131 1229 140 1233 q 116 1223 123 1226 l -30 1165 q -66 1112 -66 1151 q -50 1073 -66 1088 q -12 1058 -34 1058 q 22 1066 0 1058 q 68 1083 44 1073 q 114 1103 93 1093 q 148 1118 136 1113 q 182 1102 161 1112 q 227 1083 204 1093 q 271 1066 250 1073 q 305 1058 293 1058 q 346 1075 329 1058 q 363 1115 363 1091 q 329 1168 363 1154 l 179 1223 q 163 1229 172 1226 q 147 1233 154 1233 m 88 0 l 208 0 l 208 950 q 191 993 208 975 q 150 1011 175 1011 q 106 993 125 1011 q 88 950 88 975 l 88 0 "},"e":{"x_min":51.390625,"x_max":705.609375,"ha":747,"o":"m 181 323 l 632 323 q 687 336 669 323 q 705 388 705 348 q 683 522 705 456 q 620 638 661 587 q 520 720 579 688 q 387 751 461 751 q 247 719 309 751 q 142 634 186 687 q 75 513 98 581 q 51 372 51 444 q 74 224 51 294 q 141 101 97 154 q 250 17 186 48 q 397 -13 313 -13 q 491 -2 448 -13 q 580 29 533 9 l 554 122 q 479 102 518 111 q 401 93 440 93 q 313 111 354 93 q 244 161 273 130 q 198 235 215 193 q 181 323 181 277 m 179 415 q 198 501 184 458 q 236 577 212 544 q 295 631 259 611 q 384 652 331 652 q 466 631 430 652 q 527 575 502 609 q 566 499 552 541 q 581 415 580 456 l 179 415 "},"Ã":{"x_min":13.890625,"x_max":866.734375,"ha":858,"o":"m 281 1183 q 242 1167 258 1183 q 226 1127 226 1151 q 243 1088 226 1104 q 283 1072 259 1072 l 575 1072 q 616 1088 598 1072 q 633 1127 633 1104 q 616 1167 633 1151 q 576 1183 600 1183 l 281 1183 m 231 320 l 429 866 l 625 320 l 231 320 m 425 1011 q 370 988 390 1011 q 340 936 351 965 l 20 76 q 13 43 13 58 q 29 2 13 19 q 70 -13 45 -13 q 105 -2 90 -13 q 127 27 120 9 l 198 215 l 659 215 l 747 -13 l 866 20 l 518 936 q 485 991 504 972 q 425 1011 466 1011 "},"J":{"x_min":16.671875,"x_max":420.859375,"ha":510,"o":"m 361 1011 q 318 993 336 1011 q 301 951 301 976 l 301 237 q 294 177 301 205 q 272 128 287 149 q 231 95 256 108 q 172 83 206 83 q 138 88 154 83 q 109 100 123 92 q 81 115 95 108 q 51 128 66 123 l 16 28 q 95 -4 54 8 q 180 -16 136 -16 q 283 4 238 -16 q 358 62 327 26 q 404 147 388 98 q 420 251 420 197 l 420 949 q 404 992 420 974 q 361 1011 387 1011 "},"»":{"x_min":34.71875,"x_max":511.15625,"ha":565,"o":"m 122 669 l 34 616 l 188 368 l 66 169 q 55 131 55 151 q 68 96 55 111 q 101 81 80 81 q 132 91 118 81 q 155 115 147 101 l 279 325 q 290 343 284 333 q 295 363 295 352 q 283 395 295 370 q 252 454 270 420 q 211 524 233 487 q 169 592 188 561 q 136 645 150 623 q 122 669 123 666 m 337 670 l 248 617 l 404 368 l 281 169 q 270 132 270 151 q 282 96 270 111 q 316 82 294 82 q 347 91 333 82 q 370 115 362 100 l 494 325 q 505 343 500 333 q 511 364 511 353 q 498 396 511 371 q 467 454 486 421 q 426 524 448 487 q 384 592 404 561 q 352 645 365 624 q 337 670 338 667 "},"©":{"x_min":77.78125,"x_max":1113.984375,"ha":1192,"o":"m 77 501 q 118 300 77 394 q 229 135 159 205 q 394 24 300 65 q 595 -16 488 -16 q 797 24 702 -16 q 961 135 891 65 q 1073 300 1032 205 q 1113 501 1113 394 q 1073 702 1113 608 q 961 867 1032 797 q 797 978 891 937 q 595 1019 702 1019 q 394 978 488 1019 q 229 867 300 937 q 118 702 159 797 q 77 501 77 608 m 143 501 q 177 679 143 595 q 273 825 212 762 q 417 924 334 887 q 595 961 500 961 q 772 924 690 961 q 917 825 855 887 q 1014 678 979 762 q 1050 501 1050 594 q 1014 323 1050 406 q 917 177 979 240 q 772 78 855 115 q 595 41 690 41 q 417 78 500 41 q 273 177 334 115 q 177 323 212 240 q 143 501 143 406 m 334 493 q 353 373 334 430 q 407 273 372 316 q 495 205 443 230 q 613 180 547 180 q 664 184 632 180 q 728 197 697 187 q 782 226 759 208 q 805 272 805 244 q 795 298 805 287 q 770 309 786 309 q 745 301 759 309 q 713 284 732 293 q 670 266 694 275 q 613 258 645 258 q 527 279 563 258 q 468 333 491 300 q 432 409 444 366 q 420 497 420 452 q 431 581 420 538 q 466 659 443 625 q 525 716 488 694 q 609 738 561 738 q 662 730 640 738 q 701 712 684 722 q 732 694 718 702 q 759 686 745 686 q 783 697 773 686 q 793 722 793 708 q 772 766 793 748 q 722 795 751 784 q 662 811 693 807 q 613 816 632 816 q 491 790 544 816 q 404 719 438 763 q 352 616 369 675 q 334 493 334 556 "},"ò":{"x_min":51.390625,"x_max":707,"ha":760,"o":"m 51 372 q 72 230 51 300 q 136 106 94 161 q 240 18 179 51 q 380 -15 301 -15 q 519 18 458 -15 q 622 106 580 51 q 685 230 663 161 q 707 370 707 300 q 684 511 707 443 q 620 634 662 580 q 518 720 579 687 q 379 752 456 752 q 240 720 301 752 q 137 634 179 687 q 73 511 95 580 q 51 372 51 443 m 533 852 q 522 885 533 870 q 495 907 512 900 q 450 925 480 912 q 384 952 419 938 q 319 977 350 966 q 276 987 288 987 q 237 972 252 987 q 222 934 222 958 q 232 901 222 915 q 259 880 243 887 q 304 861 273 875 q 370 834 336 848 q 435 810 405 820 q 477 800 465 800 q 517 814 501 800 q 533 852 533 829 m 176 370 q 187 465 176 416 q 222 554 198 513 q 285 622 247 595 q 377 648 323 648 q 472 622 433 648 q 536 557 511 597 q 572 468 561 518 q 583 372 583 419 q 572 273 583 323 q 536 182 561 223 q 472 115 512 141 q 376 90 433 90 q 284 116 322 90 q 222 184 245 143 q 187 275 198 226 q 176 370 176 325 "},"^":{"x_min":69.453125,"x_max":732,"ha":801,"o":"m 69 242 l 169 242 l 400 662 l 632 242 l 732 242 l 400 826 l 69 242 "},"\f":{"x_min":0,"x_max":429.203125,"ha":424,"o":"m 215 919 q 180 933 202 923 q 134 954 158 944 q 89 971 111 963 q 55 979 68 979 q 15 963 31 979 q 0 923 0 947 q 34 870 0 884 l 183 812 q 198 806 190 809 q 215 804 206 804 q 232 807 223 804 q 250 813 241 810 l 394 870 q 419 891 409 877 q 429 922 429 905 q 412 962 429 945 q 372 979 395 979 q 338 971 359 979 q 293 954 316 963 q 248 934 269 944 q 215 919 227 924 "},"«":{"x_min":54.171875,"x_max":523.65625,"ha":565,"o":"m 248 655 q 217 645 231 655 q 194 622 202 636 l 70 411 q 59 393 65 402 q 54 372 54 383 q 65 341 54 365 q 95 284 77 316 q 135 217 113 252 q 175 151 156 181 q 206 100 193 120 q 220 76 219 79 l 308 127 l 161 369 l 283 568 q 294 605 294 586 q 281 640 294 625 q 248 655 269 655 m 463 656 q 432 646 447 656 q 409 622 418 636 l 284 411 q 273 393 279 402 q 268 372 268 383 q 279 340 268 365 q 309 284 291 316 q 349 217 327 252 q 388 151 370 181 q 420 99 406 120 q 434 76 433 78 l 523 127 l 375 369 l 498 568 q 509 605 509 586 q 497 640 509 625 q 463 656 484 656 "},"D":{"x_min":88.890625,"x_max":840.34375,"ha":892,"o":"m 88 58 q 108 14 88 29 q 155 0 127 0 l 404 0 q 597 41 515 0 q 733 153 679 83 q 813 315 787 223 q 840 511 840 408 q 811 695 840 606 q 727 851 783 783 q 592 959 672 919 q 409 1000 512 1000 q 380 1000 405 1000 q 322 1000 356 1000 q 247 1000 287 1000 q 173 1000 208 1000 q 115 1000 138 1000 q 88 1002 91 1001 l 88 58 m 208 108 l 208 892 l 400 892 q 537 858 479 892 q 634 771 595 825 q 691 650 672 718 q 711 511 711 582 q 694 363 711 436 q 640 233 677 290 q 543 142 602 177 q 397 108 483 108 l 208 108 "},"":{"x_min":59.734375,"x_max":702.828125,"ha":763,"o":"m 702 119 l 59 119 l 59 25 l 702 25 l 702 119 m 702 538 l 702 636 l 61 434 l 61 344 l 702 143 l 702 240 l 225 388 l 702 538 "},"":{"x_min":73.609375,"x_max":915.34375,"ha":983,"o":"m 508 330 q 542 265 523 297 q 585 211 561 234 q 641 172 609 187 q 713 158 673 158 q 806 181 768 158 q 868 240 844 204 q 904 323 893 277 q 915 416 915 369 q 900 509 915 463 q 859 591 886 555 q 791 650 832 627 q 700 672 751 672 q 627 657 659 672 q 567 618 594 643 q 519 563 540 594 q 481 500 498 533 q 447 563 466 533 q 404 618 429 594 q 347 657 379 643 q 276 672 316 672 q 185 649 223 672 q 122 588 147 626 q 85 505 97 551 q 73 413 73 459 q 88 320 73 366 q 130 238 102 275 q 198 180 158 202 q 290 158 238 158 q 363 172 330 158 q 422 211 395 187 q 470 267 448 236 q 508 330 491 298 m 458 454 q 425 386 444 423 q 382 316 406 348 q 327 261 358 283 q 255 238 295 238 q 191 252 219 238 q 145 290 163 266 q 117 345 126 315 q 108 409 108 376 q 119 477 108 445 q 152 531 130 508 q 203 569 173 555 q 270 583 233 583 q 382 545 337 583 q 458 454 427 508 m 531 376 q 563 443 544 405 q 606 513 581 480 q 661 568 630 545 q 729 591 691 591 q 843 541 804 591 q 882 420 882 491 q 870 352 882 384 q 838 297 859 320 q 786 260 816 273 q 719 247 757 247 q 606 282 652 247 q 531 376 561 318 "},"∙":{"x_min":75,"x_max":222.234375,"ha":297,"o":"m 75 363 q 97 313 75 334 q 148 291 119 291 q 200 313 179 291 q 222 363 222 334 q 200 416 222 395 q 147 437 177 437 q 95 415 116 437 q 75 363 75 393 "},"ÿ":{"x_min":2.78125,"x_max":588.9375,"ha":601,"o":"m 94 876 q 116 824 94 844 q 169 804 138 804 q 220 826 200 804 q 241 877 241 848 q 220 928 241 907 q 169 950 198 950 q 115 929 137 950 q 94 876 94 908 m 361 876 q 381 826 361 848 q 431 804 402 804 q 485 824 463 804 q 506 876 506 844 q 485 929 506 908 q 431 950 463 950 q 381 927 401 950 q 361 876 361 905 m 2 705 l 241 23 q 218 -33 234 6 q 186 -117 202 -73 q 156 -200 169 -161 q 143 -251 143 -238 q 161 -291 143 -276 q 202 -306 179 -306 q 239 -290 226 -306 q 259 -255 252 -275 q 282 -190 265 -238 q 324 -73 300 -141 q 377 76 348 -5 q 436 240 406 158 q 493 402 465 323 q 542 544 520 481 q 576 647 563 607 q 588 695 588 688 q 570 736 588 719 q 529 752 552 752 q 493 738 506 752 q 472 704 479 723 l 302 184 l 116 741 l 2 705 "},"":{"x_min":62.5,"x_max":700.0625,"ha":763,"o":"m 677 569 l 616 630 l 452 466 l 62 466 l 62 377 l 372 377 l 270 277 l 62 277 l 62 188 l 188 188 l 86 86 l 145 25 l 309 188 l 700 188 l 700 277 l 391 277 l 493 377 l 700 377 l 700 466 l 573 466 l 677 569 "},"í":{"x_min":-22.21875,"x_max":288.90625,"ha":264,"o":"m 233 987 q 190 977 220 987 q 126 952 161 966 q 60 925 91 938 q 15 907 29 912 q -11 885 -1 900 q -22 852 -22 870 q -5 813 -22 829 q 34 798 11 798 q 77 809 47 798 q 140 833 106 819 q 206 860 175 847 q 251 879 237 873 q 278 900 268 886 q 288 933 288 915 q 272 972 288 957 q 233 987 256 987 m 90 -1 l 206 -1 l 206 694 q 190 734 206 716 q 151 752 175 752 q 108 736 126 752 q 90 694 90 720 l 90 -1 "},"ˆ":{"x_min":-2.78125,"x_max":427.8125,"ha":425,"o":"m 211 975 q 195 971 204 975 q 180 965 187 968 l 33 906 q -2 854 -2 893 q 13 815 -2 830 q 51 800 29 800 q 86 807 63 800 q 132 825 108 815 q 178 845 156 834 q 212 859 200 855 q 246 844 225 854 q 290 825 268 834 q 335 807 313 815 q 369 800 356 800 q 410 816 393 800 q 427 856 427 833 q 393 909 427 895 l 243 965 q 227 971 236 968 q 211 975 218 975 "},"w":{"x_min":4.171875,"x_max":1045.921875,"ha":1057,"o":"m 4 713 l 226 50 q 250 5 234 24 q 297 -13 265 -13 q 341 4 326 -13 q 365 46 356 21 l 529 559 l 691 46 q 715 4 700 21 q 759 -13 730 -13 q 806 5 791 -13 q 830 50 820 24 l 1041 671 q 1045 694 1045 681 q 1027 735 1045 719 q 984 752 1009 752 q 949 740 965 752 q 926 709 933 728 l 758 175 l 594 692 l 463 692 l 298 175 l 119 750 l 4 713 "},"$":{"x_min":31.953125,"x_max":655.609375,"ha":678,"o":"m 305 102 l 290 102 q 240 109 266 102 q 189 128 215 116 q 141 155 163 140 q 102 186 119 170 l 31 100 q 81 49 47 70 q 154 14 115 27 q 235 -4 194 1 q 305 -11 276 -11 l 305 -101 l 359 -102 l 359 -9 q 473 22 419 -5 q 568 93 527 50 q 631 192 608 136 q 655 309 655 248 q 629 421 655 375 q 560 501 602 468 q 465 556 518 534 q 359 597 412 579 l 359 905 q 407 891 380 901 q 459 869 434 880 q 505 849 484 858 q 537 840 526 840 q 575 857 559 840 q 590 897 590 875 q 562 947 590 926 q 497 983 534 969 q 420 1004 459 997 q 358 1011 380 1011 q 359 1037 358 1020 q 360 1070 361 1054 q 353 1098 359 1086 q 330 1109 347 1109 q 309 1097 315 1109 q 303 1067 304 1084 q 304 1033 302 1050 q 305 1008 305 1016 q 209 985 255 1008 q 128 926 163 962 q 72 843 93 890 q 51 748 51 797 q 97 609 51 665 q 218 522 144 552 q 261 504 240 512 q 305 488 283 497 l 305 102 m 305 901 l 306 615 q 259 638 281 625 q 219 669 237 651 q 190 709 201 687 q 180 761 180 732 q 190 809 180 786 q 218 852 201 833 q 258 884 236 872 q 305 901 280 897 m 359 105 l 359 472 q 420 447 390 462 q 474 413 450 433 q 513 365 498 393 q 527 301 527 337 q 513 234 527 268 q 477 174 500 201 q 423 128 454 147 q 359 105 393 109 "},"\\":{"x_min":69.453125,"x_max":331.96875,"ha":401,"o":"m 69 1000 l 244 0 l 331 0 l 156 1000 l 69 1000 "},"":{"x_min":-125.015625,"x_max":505.59375,"ha":376,"o":"m 393 1051 q 272 1006 320 1051 q 195 890 225 961 q 152 731 166 819 q 131 556 137 643 q 126 393 126 469 q 125 269 126 316 q 123 220 125 258 q 119 133 122 183 q 111 27 116 83 q 97 -73 105 -27 q 76 -150 88 -119 q 45 -180 63 -180 q 22 -166 30 -180 q 4 -136 13 -152 q -18 -106 -4 -120 q -56 -93 -31 -93 q -106 -109 -88 -93 q -125 -158 -125 -126 q -89 -227 -125 -204 q -12 -251 -54 -251 q 54 -237 23 -251 q 109 -200 84 -223 q 154 -148 134 -177 q 187 -88 173 -119 q 222 47 209 -36 q 243 223 236 131 q 252 402 250 315 q 256 550 255 490 q 258 597 256 561 q 261 681 259 633 q 269 782 263 729 q 283 879 275 834 q 304 952 291 923 q 336 980 318 980 q 358 966 350 980 q 375 936 366 952 q 398 905 384 919 q 437 891 412 891 q 487 909 469 891 q 505 958 505 926 q 470 1027 505 1004 q 393 1051 434 1051 "},"Ì":{"x_min":-8.328125,"x_max":302.796875,"ha":297,"o":"m 302 1111 q 292 1143 302 1129 q 265 1165 281 1158 q 219 1184 250 1170 q 154 1211 188 1197 q 88 1235 119 1225 q 45 1245 58 1245 q 6 1231 22 1245 q -8 1193 -8 1216 q 2 1159 -8 1173 q 29 1138 12 1145 q 74 1120 43 1133 q 140 1093 105 1107 q 204 1068 175 1079 q 247 1058 234 1058 q 286 1073 270 1058 q 302 1111 302 1087 m 88 0 l 208 0 l 208 950 q 191 993 208 975 q 150 1011 175 1011 q 106 993 125 1011 q 88 950 88 975 l 88 0 "},"µ":{"x_min":101,"x_max":774.59375,"ha":839,"o":"m 230 623 l 102 623 l 102 278 q 104 144 102 210 q 106 10 106 77 q 103 -90 106 -39 q 101 -190 101 -140 q 102 -224 101 -207 q 110 -256 103 -242 q 128 -281 116 -271 q 160 -290 139 -290 q 203 -275 188 -290 q 219 -232 219 -260 q 205 -176 219 -211 q 174 -99 191 -142 q 144 -9 157 -57 q 130 85 130 38 q 130 108 130 97 q 131 130 131 119 q 182 27 146 67 q 288 -13 219 -13 q 375 8 339 -13 q 437 64 412 30 q 480 141 463 98 q 507 225 496 184 q 512 148 507 189 q 532 71 517 106 q 574 11 546 35 q 649 -13 602 -13 q 708 0 684 -13 q 747 37 732 14 q 768 90 762 60 q 774 149 774 119 q 773 165 774 156 q 773 180 773 173 l 744 180 q 743 142 744 165 q 737 98 742 119 q 719 62 731 77 q 684 47 706 47 q 653 60 664 47 q 637 94 642 74 q 632 133 632 113 q 631 167 631 153 l 631 623 l 503 623 q 505 506 503 566 q 502 387 506 447 q 487 269 498 327 q 450 158 475 212 q 428 117 441 137 q 400 82 416 98 q 364 56 384 66 q 319 47 344 47 q 266 62 284 47 q 239 103 248 78 q 230 158 231 128 q 230 212 230 187 l 230 623 "},"Ç":{"x_min":52,"x_max":807.21875,"ha":828,"o":"m 52 490 q 77 311 52 397 q 153 156 103 225 q 277 43 203 88 q 450 -11 351 -1 q 428 -32 441 -19 q 403 -60 415 -45 q 381 -89 390 -74 q 372 -116 372 -103 q 385 -146 372 -134 q 416 -158 398 -158 q 462 -135 444 -158 l 558 -11 q 625 1 583 -8 q 707 29 666 12 q 777 70 747 46 q 807 126 807 94 q 791 167 807 149 q 753 185 776 185 q 716 172 737 185 q 665 141 696 158 q 594 110 634 124 q 500 97 554 97 q 355 131 416 97 q 255 223 294 166 q 196 352 215 280 q 178 499 178 425 q 196 641 178 569 q 251 770 214 713 q 347 864 289 828 q 487 901 405 901 q 559 893 528 901 q 617 871 590 885 q 669 836 644 857 q 721 788 693 814 l 790 850 q 738 920 771 889 q 665 971 705 951 q 581 1003 625 992 q 496 1015 537 1015 q 300 971 383 1015 q 162 854 216 927 q 79 686 107 781 q 52 490 52 591 "},"’":{"x_min":8.328125,"x_max":243.078125,"ha":268,"o":"m 116 707 l 236 956 q 243 983 243 970 q 225 1024 243 1006 q 183 1043 208 1043 q 152 1033 166 1043 q 130 1009 137 1024 l 8 759 l 116 707 "},"-":{"x_min":61.109375,"x_max":445.875,"ha":500,"o":"m 61 455 l 62 347 l 393 347 q 430 363 415 347 q 445 401 445 379 q 430 439 445 423 q 393 455 415 455 l 61 455 "},"Q":{"x_min":51.390625,"x_max":984.796875,"ha":976,"o":"m 837 183 q 904 333 886 256 q 923 498 923 410 q 895 687 923 595 q 812 851 868 779 q 675 967 757 923 q 488 1011 594 1011 q 300 967 381 1011 q 162 854 218 924 q 79 690 106 783 q 51 499 51 598 q 79 308 51 401 q 162 144 106 216 q 300 28 218 72 q 488 -14 381 -14 q 640 14 568 -14 q 768 99 712 42 l 909 -41 l 984 37 l 837 183 m 750 272 q 724 299 740 281 q 690 334 708 316 q 654 364 672 351 q 622 377 636 377 q 584 361 600 377 q 568 323 568 345 q 581 287 568 306 q 614 248 595 268 q 652 211 633 229 q 683 183 672 194 q 596 115 647 138 q 487 91 545 91 q 342 129 401 91 q 247 228 283 168 q 197 363 212 288 q 181 511 181 437 q 198 650 181 580 q 252 777 215 720 q 345 870 288 834 q 483 907 402 907 q 625 872 566 907 q 720 780 683 837 q 775 652 758 723 q 793 508 793 580 q 783 388 793 445 q 750 272 773 330 "},"M":{"x_min":48.609375,"x_max":1143.140625,"ha":1186,"o":"m 288 1011 q 228 991 254 1011 q 195 936 202 970 l 50 65 q 48 44 48 58 q 65 4 48 19 q 106 -11 81 -11 q 149 4 133 -11 q 169 44 165 19 l 290 858 l 533 33 l 652 33 l 897 858 l 1023 -6 l 1143 13 l 990 936 q 958 991 984 970 q 897 1011 932 1011 q 841 991 862 1011 q 809 940 819 972 l 593 197 l 377 940 q 345 991 368 972 q 288 1011 323 1011 "},"C":{"x_min":52,"x_max":807.21875,"ha":846,"o":"m 52 490 q 81 298 52 390 q 166 137 110 206 q 307 26 223 67 q 497 -14 390 -14 q 627 0 559 -14 q 747 51 694 15 q 787 82 766 65 q 807 128 807 100 q 791 169 807 151 q 753 187 776 187 q 716 174 737 187 q 666 143 696 160 q 595 112 636 126 q 500 99 554 99 q 355 133 416 99 q 255 225 294 168 q 196 354 215 282 q 178 500 178 426 q 196 642 178 570 q 251 771 214 713 q 347 864 289 828 q 487 901 405 901 q 559 893 528 901 q 617 871 590 885 q 669 836 644 857 q 721 788 693 814 l 790 850 q 738 920 771 889 q 665 971 705 951 q 581 1003 625 992 q 496 1015 537 1015 q 300 971 383 1015 q 162 854 216 927 q 79 686 107 781 q 52 490 52 591 "},"œ":{"x_min":51.390625,"x_max":1229.265625,"ha":1270,"o":"m 643 593 q 596 658 625 629 q 532 708 568 687 q 457 740 497 729 q 377 751 418 751 q 238 719 300 751 q 136 633 177 686 q 72 512 94 580 q 51 372 51 443 q 72 233 51 302 q 133 110 93 164 q 234 23 173 56 q 372 -10 294 -10 q 451 0 411 -10 q 528 32 491 11 q 594 80 565 52 q 643 145 623 109 q 692 77 662 107 q 759 27 722 48 q 837 -2 795 7 q 920 -13 879 -13 q 1005 -3 963 -13 q 1087 23 1047 6 q 1076 44 1083 30 q 1061 74 1069 59 q 1048 103 1054 89 q 1043 124 1043 117 q 927 98 986 98 q 838 116 877 98 q 770 166 798 134 q 725 239 741 197 q 708 329 709 281 l 1154 329 q 1211 340 1194 329 q 1229 394 1229 351 q 1207 528 1229 464 q 1143 643 1184 593 q 1041 723 1101 693 q 908 753 982 753 q 753 709 825 753 q 643 593 682 666 m 176 362 q 186 459 176 408 q 218 553 195 509 q 279 625 241 597 q 372 654 316 654 q 470 630 430 654 q 534 568 509 607 q 570 479 559 529 q 580 380 580 430 q 571 280 580 331 q 540 187 562 229 q 479 118 518 145 q 380 91 440 91 q 286 116 325 91 q 222 180 247 141 q 187 267 198 219 q 176 362 176 315 m 707 418 q 726 500 713 459 q 761 575 738 541 q 818 629 784 608 q 902 650 852 650 q 988 630 950 650 q 1052 579 1026 611 q 1091 505 1077 547 q 1105 418 1105 463 l 707 418 "},"!":{"x_min":72.234375,"x_max":219.46875,"ha":292,"o":"m 72 52 q 94 2 72 22 q 145 -18 116 -18 q 197 2 176 -18 q 219 55 219 23 q 197 107 219 87 q 144 127 175 127 q 92 105 112 127 q 72 52 72 83 m 88 204 l 204 202 l 204 962 q 186 1004 204 986 q 144 1022 168 1022 q 104 1004 120 1022 q 88 963 88 987 l 88 204 "},"ç":{"x_min":51.390625,"x_max":607,"ha":624,"o":"m 51 368 q 68 241 51 303 q 118 128 84 179 q 204 41 152 76 q 323 -5 255 6 q 304 -32 318 -13 q 276 -73 290 -52 q 251 -113 262 -93 q 240 -142 240 -132 q 252 -173 240 -160 q 283 -185 265 -185 q 309 -179 295 -185 q 330 -162 323 -173 l 427 -7 q 474 0 447 -6 q 525 15 501 4 q 567 44 550 26 q 584 88 584 61 q 568 124 584 108 q 530 140 552 140 q 501 133 518 140 q 465 119 484 126 q 425 104 445 111 q 383 97 404 97 q 292 124 330 97 q 228 190 254 150 q 190 280 202 231 q 177 374 177 329 q 190 471 177 422 q 228 558 202 519 q 294 620 254 596 q 391 645 334 645 q 474 626 434 645 q 550 589 513 608 l 607 686 q 554 714 579 701 q 504 735 529 726 q 452 748 479 743 q 391 753 425 753 q 246 721 309 753 q 139 637 183 690 q 73 514 95 583 q 51 368 51 444 "},"È":{"x_min":89,"x_max":598.765625,"ha":621,"o":"m 463 1111 q 453 1143 463 1129 q 426 1165 443 1158 q 380 1184 411 1170 q 315 1211 350 1197 q 250 1235 280 1225 q 207 1245 219 1245 q 168 1231 183 1245 q 152 1193 152 1216 q 163 1159 152 1173 q 190 1138 173 1145 q 235 1120 204 1133 q 301 1093 266 1107 q 366 1068 336 1079 q 408 1058 395 1058 q 447 1073 432 1058 q 463 1111 463 1087 m 89 65 q 104 18 89 37 q 150 0 120 0 l 598 0 l 598 109 l 211 109 l 211 444 l 486 444 q 525 460 509 444 q 541 500 541 476 q 525 538 541 523 q 484 554 508 554 l 211 554 l 211 890 l 500 890 q 540 906 523 890 q 557 945 557 922 q 540 984 557 968 q 501 1000 523 1000 l 151 1000 q 120 1000 136 1000 q 90 1002 105 1000 l 89 65 "},"{":{"x_min":69.453125,"x_max":376.421875,"ha":446,"o":"m 69 500 q 132 468 109 495 q 155 401 155 441 l 155 -63 q 187 -134 155 -112 q 263 -155 219 -155 l 352 -155 l 352 -104 q 306 -102 325 -104 q 276 -91 287 -100 q 260 -66 265 -83 q 255 -19 255 -50 l 255 391 q 229 463 255 431 q 162 500 204 495 q 229 536 204 504 q 255 608 255 568 l 255 1019 q 274 1088 255 1073 q 316 1104 293 1104 q 357 1104 338 1105 q 376 1126 376 1104 q 370 1146 376 1137 q 352 1155 365 1155 l 263 1155 q 187 1134 219 1155 q 155 1063 155 1112 l 155 598 q 132 531 155 559 q 69 500 109 502 "},"X":{"x_min":13.890625,"x_max":816.734375,"ha":832,"o":"m 344 535 l 27 84 q 13 43 13 63 q 31 3 13 20 q 73 -13 50 -13 q 102 -3 88 -13 q 125 17 116 5 l 415 439 l 707 17 q 729 -3 715 5 q 758 -13 743 -13 q 799 2 782 -13 q 816 42 816 18 q 802 84 816 63 l 486 535 l 755 916 q 765 933 761 924 q 769 952 769 942 q 750 993 769 976 q 708 1011 732 1011 q 678 1001 691 1011 q 655 977 665 991 l 415 626 l 154 1011 l 52 949 l 344 535 "},"ô":{"x_min":51.390625,"x_max":707,"ha":760,"o":"m 51 372 q 72 230 51 300 q 136 106 94 161 q 240 18 179 51 q 380 -15 301 -15 q 519 18 458 -15 q 622 106 580 51 q 685 230 663 161 q 707 370 707 300 q 684 511 707 443 q 620 634 662 580 q 518 720 579 687 q 379 752 456 752 q 240 720 301 752 q 137 634 179 687 q 73 511 95 580 q 51 372 51 443 m 377 975 q 362 971 370 975 q 347 965 354 968 l 200 907 q 163 854 163 893 q 179 815 163 830 q 218 800 195 800 q 252 807 230 800 q 299 825 275 815 q 345 845 323 834 q 379 859 366 855 q 413 844 391 854 q 457 825 434 834 q 502 807 480 815 q 536 800 523 800 q 577 816 559 800 q 594 857 594 833 q 559 909 594 895 l 409 965 q 393 971 402 968 q 377 975 384 975 m 176 370 q 187 465 176 416 q 222 554 198 513 q 285 622 247 595 q 377 648 323 648 q 472 622 433 648 q 536 557 511 597 q 572 468 561 518 q 583 372 583 419 q 572 273 583 323 q 536 182 561 223 q 472 115 512 141 q 376 90 433 90 q 284 116 322 90 q 222 184 245 143 q 187 275 198 226 q 176 370 176 325 "},"¼":{"x_min":0,"x_max":0,"ha":0},"#":{"x_min":68.0625,"x_max":779.234375,"ha":849,"o":"m 251 373 l 111 373 q 81 362 95 373 q 68 334 68 351 q 77 314 68 323 q 97 305 86 305 l 237 305 q 231 273 236 297 q 220 219 226 250 q 206 154 213 189 q 194 90 200 119 q 184 40 188 61 q 180 15 180 19 q 188 -3 180 4 q 206 -11 195 -11 q 230 -1 220 -11 q 243 19 240 7 l 302 308 l 462 308 q 450 249 459 294 q 429 154 440 204 q 411 62 419 104 q 402 12 402 20 q 411 -4 402 1 q 429 -11 419 -11 q 454 -2 443 -11 q 468 19 465 5 l 526 304 l 670 304 q 700 316 687 304 q 713 345 713 327 q 704 365 713 357 q 684 373 695 373 l 541 373 l 594 627 l 737 627 q 766 638 752 627 q 779 665 779 648 q 770 684 779 676 q 751 693 762 693 l 608 693 l 670 976 l 604 976 l 543 693 l 384 693 l 447 976 l 380 976 l 318 693 l 181 693 q 153 683 166 693 q 140 657 140 673 q 147 636 140 644 q 169 627 155 627 l 304 627 l 251 373 m 316 373 l 370 627 l 529 627 l 476 373 l 316 373 "},"Ê":{"x_min":88.890625,"x_max":570.875,"ha":621,"o":"m 88 65 q 104 18 88 37 q 150 0 120 0 l 515 0 q 554 15 537 0 q 570 54 570 31 q 554 93 570 77 q 513 109 537 109 l 211 109 l 211 444 l 486 444 q 525 460 509 444 q 541 500 541 476 q 525 538 541 523 q 484 554 508 554 l 211 554 l 211 890 l 500 890 q 540 906 523 890 q 556 945 556 922 q 540 984 556 968 q 501 1000 523 1000 l 151 1000 q 106 982 125 1000 q 88 937 88 963 l 88 65 m 308 1233 q 293 1229 301 1233 q 277 1223 284 1226 l 130 1165 q 94 1112 94 1151 q 110 1073 94 1088 q 148 1058 126 1058 q 183 1066 161 1058 q 229 1083 205 1073 q 275 1103 254 1093 q 309 1118 297 1113 q 343 1102 322 1112 q 388 1083 365 1093 q 432 1066 411 1073 q 466 1058 454 1058 q 507 1075 490 1058 q 525 1115 525 1091 q 490 1168 525 1154 l 340 1223 q 324 1229 333 1226 q 308 1233 315 1233 "},")":{"x_min":16.328125,"x_max":214,"ha":283,"o":"m 28 -20 q 44 -57 28 -44 q 81 -71 60 -71 q 124 -32 105 -71 q 157 65 142 5 q 182 196 172 124 q 200 334 193 267 q 210 453 207 401 q 214 527 214 505 q 179 815 214 675 q 102 1096 144 955 l 16 1073 q 42 1005 30 1047 q 64 910 53 962 q 82 801 74 858 q 96 690 89 744 q 105 589 102 636 q 108 512 108 543 q 94 304 108 408 q 56 99 80 201 q 39 39 49 72 q 28 -20 28 6 "},"\u001c":{"x_min":0,"x_max":0,"ha":0},"Å":{"x_min":13.890625,"x_max":866.734375,"ha":857,"o":"m 390 1002 q 359 974 370 993 q 340 936 347 955 l 20 76 q 13 43 13 58 q 29 2 13 19 q 70 -13 45 -13 q 105 -2 90 -13 q 127 27 120 9 l 198 215 l 659 215 l 747 -13 l 866 20 l 518 936 q 500 975 511 955 q 466 1002 488 994 q 525 1043 502 1013 q 548 1112 548 1072 q 538 1158 548 1137 q 512 1195 529 1179 q 474 1220 495 1211 q 429 1229 452 1229 q 345 1195 380 1229 q 309 1112 309 1161 q 331 1043 309 1073 q 390 1002 354 1013 m 376 1113 q 392 1150 376 1136 q 430 1165 408 1165 q 468 1150 452 1165 q 483 1112 483 1134 q 467 1074 483 1088 q 429 1059 451 1059 q 391 1075 406 1059 q 376 1113 376 1091 m 231 320 l 429 866 l 625 320 l 231 320 "},"ø":{"x_min":28.78125,"x_max":720.890625,"ha":758,"o":"m 28 -11 l 82 -57 l 178 65 q 270 5 219 24 q 376 -14 322 -14 q 515 17 454 -14 q 620 103 577 49 q 684 225 662 156 q 707 365 707 293 q 688 496 707 433 q 633 617 670 560 q 654 642 640 625 q 684 677 669 658 q 709 713 698 696 q 720 742 720 730 q 709 770 720 760 q 680 781 697 781 q 654 768 669 781 q 626 739 640 755 q 600 707 612 723 q 582 682 588 690 q 485 734 537 715 q 377 753 433 753 q 239 720 299 753 q 137 633 178 687 q 73 511 95 579 q 51 372 51 443 q 121 122 51 237 l 28 -11 m 506 593 l 205 221 q 176 365 176 289 q 186 462 176 412 q 221 554 196 512 q 284 622 245 596 q 380 649 323 649 q 449 635 416 649 q 506 593 482 621 m 248 146 l 552 521 q 575 445 569 484 q 582 366 582 406 q 570 270 582 319 q 533 182 558 221 q 469 119 508 144 q 376 94 430 94 q 306 107 340 94 q 248 146 273 120 "},"â":{"x_min":50.390625,"x_max":699,"ha":788,"o":"m 391 975 q 376 971 384 975 q 361 965 368 968 l 213 907 q 177 854 177 893 q 193 815 177 830 q 231 800 209 800 q 266 807 244 800 q 313 825 288 815 q 359 845 337 834 q 393 859 380 855 q 427 844 405 854 q 471 825 448 834 q 516 807 494 815 q 550 800 537 800 q 591 816 573 800 q 608 857 608 833 q 573 909 608 895 l 423 965 q 407 971 416 968 q 391 975 398 975 m 582 654 q 488 727 543 702 q 372 752 433 752 q 235 719 294 752 q 134 632 175 686 q 71 511 93 579 q 50 372 50 443 q 71 231 50 300 q 132 108 92 162 q 233 20 172 54 q 372 -12 293 -12 q 492 15 437 -12 q 581 101 547 44 l 581 -5 l 699 -5 l 699 694 q 683 734 699 716 q 643 752 667 752 q 605 743 618 752 q 588 720 593 734 q 583 689 583 707 q 582 654 582 672 m 175 373 q 186 471 175 422 q 223 561 198 520 q 288 626 248 601 q 386 651 329 651 q 482 627 444 651 q 543 564 520 602 q 575 477 566 526 q 584 381 584 429 q 576 277 584 329 q 545 183 568 225 q 481 115 522 141 q 379 88 441 88 q 282 115 322 88 q 219 182 243 141 q 185 274 195 223 q 175 373 175 325 "},"}":{"x_min":69.453125,"x_max":376.421875,"ha":446,"o":"m 93 1155 q 75 1148 81 1155 q 69 1130 69 1140 q 78 1108 69 1112 q 100 1104 87 1104 q 129 1104 113 1104 q 159 1098 145 1104 q 181 1073 172 1091 q 190 1019 190 1055 l 190 608 q 216 536 190 568 q 284 500 243 504 q 216 464 243 495 q 190 391 190 433 l 190 -19 q 185 -66 190 -50 q 169 -91 180 -83 q 139 -102 158 -100 q 93 -104 120 -104 l 93 -155 l 183 -155 q 259 -134 227 -155 q 290 -63 290 -112 l 290 401 q 313 468 290 441 q 376 500 336 495 q 313 531 336 502 q 290 598 290 559 l 290 1063 q 259 1134 290 1112 q 183 1155 227 1155 l 93 1155 "},"‰":{"x_min":54,"x_max":1282.046875,"ha":1336,"o":"m 54 780 q 65 696 54 738 q 101 620 77 654 q 161 564 126 586 q 244 543 197 543 q 328 566 292 543 q 387 624 363 588 q 422 703 410 659 q 434 788 434 747 q 422 873 434 832 q 388 947 410 915 q 329 1000 365 980 q 247 1020 294 1020 q 160 999 197 1020 q 101 943 124 977 q 65 866 77 909 q 54 780 54 823 m 633 1022 q 593 994 602 1022 l 245 44 q 241 22 241 33 q 252 -9 241 4 q 281 -23 262 -23 q 306 -14 294 -23 q 323 6 319 -5 l 672 955 q 675 975 675 961 q 663 1008 675 994 q 633 1022 652 1022 m 484 212 q 495 127 484 169 q 531 51 507 84 q 590 -2 554 18 q 675 -23 627 -23 q 761 -2 725 -23 q 821 54 797 19 q 856 131 845 88 q 867 219 867 175 q 856 303 867 262 q 821 377 845 344 q 762 429 797 409 q 679 448 727 448 q 594 427 631 448 q 533 373 557 406 q 496 297 509 340 q 484 212 484 255 m 898 212 q 910 127 898 169 q 945 51 922 84 q 1005 -2 969 18 q 1090 -23 1041 -23 q 1177 -2 1140 -23 q 1236 53 1213 19 q 1270 131 1259 87 q 1282 219 1282 175 q 1270 303 1282 262 q 1236 377 1259 344 q 1178 429 1213 409 q 1094 448 1143 448 q 1009 427 1045 448 q 948 373 973 406 q 911 297 923 340 q 898 212 898 255 m 567 212 q 571 266 567 238 q 589 318 576 294 q 622 356 601 341 q 675 372 643 372 q 726 358 705 372 q 760 322 747 344 q 778 275 772 301 q 783 223 783 248 q 779 167 783 197 q 762 111 775 137 q 729 68 750 86 q 675 51 708 51 q 622 67 643 51 q 589 106 601 83 q 571 159 576 130 q 567 212 567 187 m 137 782 q 141 835 137 807 q 159 888 146 863 q 192 928 171 912 q 245 944 213 944 q 294 929 274 944 q 327 891 314 913 q 345 841 339 868 q 350 788 350 813 q 345 735 350 765 q 327 679 339 705 q 294 636 314 654 q 243 619 274 619 q 193 636 214 619 q 160 677 173 652 q 142 729 148 701 q 137 782 137 758 m 983 212 q 988 265 983 237 q 1004 318 993 294 q 1037 356 1016 341 q 1090 372 1058 372 q 1141 358 1120 372 q 1175 322 1162 344 q 1193 275 1187 301 q 1198 223 1198 248 q 1194 166 1198 197 q 1177 110 1190 136 q 1144 68 1165 84 q 1090 51 1123 51 q 1038 67 1058 51 q 1005 107 1018 83 q 988 159 993 131 q 983 212 983 187 "},"Ä":{"x_min":13.890625,"x_max":866.734375,"ha":858,"o":"m 193 1019 q 214 969 193 988 q 265 950 236 950 q 313 971 293 950 q 334 1020 334 993 q 313 1070 334 1048 q 265 1091 293 1091 q 213 1070 234 1091 q 193 1019 193 1050 m 522 1018 q 543 970 522 990 q 591 950 563 950 q 643 968 622 950 q 663 1019 663 987 q 643 1070 663 1048 q 593 1091 622 1091 q 541 1070 561 1091 q 522 1018 522 1048 m 425 1011 q 370 988 390 1011 q 340 936 351 965 l 20 76 q 13 43 13 58 q 29 2 13 19 q 70 -13 45 -13 q 105 -2 90 -13 q 127 27 120 9 l 198 215 l 659 215 l 747 -13 l 866 20 l 518 936 q 485 991 504 972 q 425 1011 466 1011 m 231 320 l 429 866 l 625 320 l 231 320 "},"¸":{"x_min":25,"x_max":225.015625,"ha":225,"o":"m 118 42 l 41 -95 q 25 -160 25 -124 q 39 -195 25 -180 q 73 -211 54 -211 q 100 -202 87 -211 q 119 -182 112 -194 l 225 42 l 118 42 "},"a":{"x_min":50.390625,"x_max":699,"ha":788,"o":"m 582 654 q 488 727 543 702 q 372 752 433 752 q 235 719 294 752 q 134 632 175 686 q 71 511 93 579 q 50 372 50 443 q 71 231 50 300 q 132 108 92 162 q 233 20 172 54 q 372 -12 293 -12 q 492 15 437 -12 q 581 101 547 44 l 581 -5 l 699 -5 l 699 694 q 683 734 699 716 q 643 752 667 752 q 605 743 618 752 q 588 720 593 734 q 583 689 583 707 q 582 654 582 672 m 175 373 q 186 471 175 422 q 223 561 198 520 q 288 626 248 601 q 386 651 329 651 q 482 627 444 651 q 543 564 520 602 q 575 477 566 526 q 584 381 584 429 q 576 277 584 329 q 545 183 568 225 q 481 115 522 141 q 379 88 441 88 q 282 115 322 88 q 219 182 243 141 q 185 274 195 223 q 175 373 175 325 "},"—":{"x_min":65.28125,"x_max":676.4375,"ha":745,"o":"m 65 270 l 676 270 l 676 388 l 65 388 l 65 270 "},"=":{"x_min":40.28125,"x_max":713.953125,"ha":756,"o":"m 88 609 q 54 596 69 609 q 40 563 40 583 q 54 530 40 544 q 87 516 68 516 l 679 516 l 679 609 l 88 609 m 75 434 l 73 343 l 665 343 q 699 356 684 343 q 713 388 713 369 q 699 421 713 408 q 665 434 684 434 l 75 434 "},"N":{"x_min":89.328125,"x_max":856,"ha":945,"o":"m 89 0 l 208 -1 l 208 792 l 746 10 q 796 -15 764 -15 q 838 1 821 -15 q 856 44 856 19 l 856 948 q 838 992 856 973 q 794 1011 821 1011 q 753 991 771 1011 q 736 948 736 972 l 738 204 l 200 984 q 150 1011 182 1011 q 107 992 125 1011 q 89 949 89 974 l 89 0 "},"ú":{"x_min":89,"x_max":675.078125,"ha":764,"o":"m 483 987 q 441 977 470 987 q 376 952 411 966 q 310 925 341 938 q 265 907 279 912 q 238 885 248 900 q 227 852 227 870 q 244 813 227 829 q 284 798 261 798 q 327 809 297 798 q 391 833 356 819 q 456 860 425 847 q 501 879 487 873 q 528 900 518 886 q 538 933 538 915 q 522 972 538 957 q 483 987 506 987 m 89 274 q 165 59 89 132 q 382 -13 241 -13 q 598 59 522 -13 q 675 274 675 132 l 675 691 q 658 734 675 716 q 616 752 641 752 q 575 734 593 752 q 558 692 558 716 l 558 277 q 516 140 558 189 q 382 91 473 91 q 248 140 290 91 q 207 277 207 189 l 207 725 l 89 724 l 89 274 "},"2":{"x_min":77.78125,"x_max":666.71875,"ha":756,"o":"m 254 109 q 344 230 300 170 q 433 353 388 291 q 500 441 462 394 q 570 539 537 488 q 627 646 604 591 q 650 756 650 701 q 627 859 650 812 q 568 941 605 906 q 482 994 531 976 q 379 1013 433 1013 q 257 989 312 1013 q 162 923 202 965 q 100 825 122 881 q 77 705 77 769 q 89 652 77 674 q 137 630 101 630 q 184 659 169 630 q 190 680 190 669 q 193 702 190 691 q 210 778 198 742 q 243 840 222 813 q 297 883 265 867 q 375 899 329 899 q 432 889 405 899 q 479 859 459 878 q 511 813 500 840 q 523 756 523 787 q 499 664 523 716 q 441 560 475 612 q 371 460 406 508 q 313 383 336 413 l 112 108 q 96 82 104 96 q 88 54 88 67 q 113 13 88 26 q 161 0 137 0 l 666 0 l 666 109 l 254 109 "},"ü":{"x_min":89,"x_max":675.078125,"ha":764,"o":"m 177 912 q 199 861 177 882 q 250 841 220 841 q 302 863 280 841 q 323 913 323 884 q 302 966 323 945 q 250 987 280 987 q 197 966 218 987 q 177 912 177 944 m 441 913 q 462 862 441 883 q 513 841 483 841 q 566 862 545 841 q 587 913 587 883 q 566 966 587 945 q 515 987 545 987 q 463 966 484 987 q 441 913 441 944 m 89 274 q 165 59 89 132 q 382 -13 241 -13 q 598 59 522 -13 q 675 274 675 132 l 675 691 q 658 734 675 716 q 616 752 641 752 q 575 734 593 752 q 558 692 558 716 l 558 277 q 516 140 558 189 q 382 91 473 91 q 248 140 290 91 q 207 277 207 189 l 207 725 l 89 724 l 89 274 "},"¯":{"x_min":0,"x_max":406.984375,"ha":404,"o":"m 55 925 q 15 909 31 925 q 0 869 0 893 q 16 830 0 845 q 56 815 33 815 l 348 813 q 389 829 372 813 q 406 869 406 845 q 390 909 406 893 q 350 925 373 925 l 55 925 "},"Z":{"x_min":44.453125,"x_max":761.171875,"ha":800,"o":"m 577 894 l 58 110 q 44 67 44 90 q 74 13 44 27 q 137 0 104 0 l 698 0 q 741 15 722 0 q 761 54 761 30 q 741 92 761 77 q 698 108 722 108 l 193 108 l 716 894 q 732 921 725 906 q 740 951 740 935 q 727 980 740 970 q 697 995 715 991 q 659 999 679 999 q 626 999 640 999 l 62 999 l 62 894 l 577 894 "},"u":{"x_min":89,"x_max":675.078125,"ha":764,"o":"m 89 274 q 165 59 89 132 q 382 -13 241 -13 q 598 59 522 -13 q 675 274 675 132 l 675 691 q 658 734 675 716 q 616 753 641 753 q 575 734 593 753 q 558 693 558 716 l 558 277 q 516 140 558 190 q 382 91 473 91 q 248 140 290 91 q 207 277 207 190 l 207 726 l 89 725 l 89 274 "},"˜":{"x_min":-2.78125,"x_max":404.203125,"ha":401,"o":"m 52 925 q 13 909 29 925 q -2 869 -2 893 q 13 830 -2 845 q 54 815 30 815 l 345 813 q 386 829 369 813 q 404 869 404 845 q 387 909 404 893 q 347 925 370 925 l 52 925 "},"Ó":{"x_min":51,"x_max":923.296875,"ha":975,"o":"m 51 500 q 78 309 51 402 q 161 146 106 217 q 298 30 216 74 q 487 -13 380 -13 q 675 30 594 -13 q 812 145 756 73 q 895 309 867 217 q 923 499 923 400 q 895 689 923 596 q 812 853 867 781 q 676 968 758 924 q 488 1012 595 1012 q 299 969 381 1012 q 162 855 217 925 q 78 691 106 784 q 51 500 51 599 m 588 1245 q 546 1235 576 1245 q 481 1211 516 1225 q 416 1184 447 1197 q 370 1165 384 1170 q 343 1143 354 1158 q 333 1111 333 1129 q 350 1072 333 1087 q 390 1057 366 1057 q 432 1067 402 1057 q 496 1091 462 1077 q 561 1118 530 1105 q 607 1137 593 1132 q 634 1159 623 1144 q 644 1191 644 1173 q 628 1230 644 1215 q 588 1245 612 1245 m 183 500 q 198 641 183 569 q 250 772 214 713 q 343 869 285 832 q 483 907 401 907 q 629 869 570 907 q 725 772 688 832 q 777 637 762 712 q 792 487 792 562 q 775 344 792 415 q 720 217 758 273 q 624 126 683 161 q 483 91 566 91 q 343 129 401 91 q 250 225 285 166 q 198 357 214 284 q 183 500 183 430 "},"k":{"x_min":89,"x_max":654.25,"ha":646,"o":"m 89 1 l 205 0 l 205 355 l 563 -11 l 654 59 l 287 423 l 577 650 q 596 670 588 658 q 604 698 604 683 q 588 735 604 718 q 551 752 572 752 q 525 745 537 752 q 502 730 513 738 l 207 486 l 207 1022 q 190 1065 207 1047 q 148 1083 173 1083 q 106 1065 123 1083 q 89 1023 89 1047 l 89 1 "},"Ù":{"x_min":88.890625,"x_max":859.796875,"ha":949,"o":"m 627 1111 q 617 1143 627 1129 q 590 1165 607 1158 q 544 1184 575 1170 q 479 1211 513 1197 q 413 1235 444 1225 q 370 1245 383 1245 q 331 1231 347 1245 q 316 1193 316 1216 q 327 1159 316 1173 q 354 1138 337 1145 q 399 1120 368 1133 q 465 1093 430 1107 q 529 1068 500 1079 q 572 1058 559 1058 q 611 1073 595 1058 q 627 1111 627 1087 m 88 354 q 118 201 88 269 q 199 85 147 133 q 321 11 251 37 q 475 -13 391 -13 q 627 11 556 -13 q 750 85 698 37 q 830 201 801 133 q 859 354 859 269 l 859 948 q 841 991 859 973 q 800 1009 823 1009 q 757 991 773 1009 q 740 948 740 973 l 740 352 q 720 244 740 293 q 666 161 701 195 q 582 109 632 127 q 475 90 533 90 q 366 109 415 90 q 281 161 316 127 q 227 244 247 195 q 208 352 208 293 l 208 1004 l 88 1004 l 88 354 "},"Ÿ":{"x_min":-1.390625,"x_max":698.671875,"ha":703,"o":"m 145 1134 q 168 1082 145 1102 q 220 1062 190 1062 q 272 1084 251 1062 q 293 1136 293 1107 q 271 1186 293 1165 q 220 1208 250 1208 q 167 1187 188 1208 q 145 1134 145 1166 m 412 1134 q 433 1084 412 1107 q 483 1062 454 1062 q 536 1082 515 1062 q 558 1134 558 1102 q 536 1187 558 1166 q 483 1208 515 1208 q 432 1186 452 1208 q 412 1134 412 1163 m 98 1017 l -1 953 q 2 944 1 949 q 5 935 2 939 l 290 468 l 290 49 q 306 5 290 23 q 351 -13 323 -13 q 395 5 377 -13 q 412 49 412 23 l 412 468 l 687 920 q 695 936 693 928 q 698 955 698 944 q 681 994 698 978 q 640 1009 663 1009 q 586 978 604 1009 l 351 589 l 98 1017 "},"¢":{"x_min":49.703125,"x_max":589.078125,"ha":625,"o":"m 319 747 q 205 699 255 736 q 120 610 155 662 q 67 495 85 558 q 49 373 49 433 q 66 247 49 311 q 116 131 83 184 q 200 40 149 77 q 319 -4 251 4 q 317 -31 319 -18 q 316 -58 316 -44 q 317 -75 316 -65 q 320 -95 317 -86 q 328 -111 323 -105 q 345 -118 334 -118 q 360 -111 355 -118 q 369 -96 366 -105 q 372 -77 371 -87 q 373 -61 373 -68 q 371 -34 373 -47 q 370 -9 370 -22 q 416 -4 388 -11 q 474 13 444 2 q 531 34 503 23 q 576 54 559 45 l 533 140 l 442 106 q 424 104 441 106 q 402 101 408 101 q 385 101 394 101 q 370 104 377 101 l 370 643 q 384 645 377 644 q 398 645 391 645 q 455 634 427 645 q 508 611 482 623 l 509 611 q 522 606 516 608 q 534 605 527 605 q 573 624 557 605 q 589 663 589 643 q 566 706 589 688 q 514 734 544 723 q 453 750 484 745 q 404 755 422 755 q 387 755 396 755 q 371 754 379 755 q 372 782 371 768 q 373 809 373 795 q 373 826 373 816 q 369 845 372 836 q 361 860 366 854 q 345 866 355 866 q 329 860 334 866 q 319 845 323 854 q 315 826 316 836 q 315 808 315 816 q 317 777 315 793 q 319 747 319 762 m 319 632 l 319 116 q 209 227 238 155 q 179 381 179 298 q 186 456 179 418 q 211 530 194 495 q 254 592 227 565 q 319 632 280 619 "},"ß":{"x_min":88.890625,"x_max":715.328125,"ha":776,"o":"m 88 768 l 88 -294 l 205 -294 l 205 784 q 215 857 205 823 q 244 917 225 891 q 295 957 263 943 q 368 972 326 972 q 433 956 405 972 q 479 914 461 940 q 508 856 498 888 q 518 790 518 823 q 488 680 518 719 q 388 623 458 641 q 365 603 373 609 q 356 573 356 597 q 374 540 356 550 q 417 524 391 530 q 473 509 443 518 q 529 478 504 500 q 572 418 555 456 q 590 311 590 379 q 573 197 590 237 q 531 138 556 158 q 476 113 505 119 q 421 102 447 106 q 379 86 395 97 q 362 48 362 76 q 370 19 362 31 q 393 0 379 6 q 422 -10 406 -6 q 452 -13 437 -13 q 565 15 516 -13 q 647 91 613 44 q 697 196 680 138 q 715 311 715 254 q 703 400 715 356 q 668 481 691 444 q 611 547 645 519 q 530 590 576 576 q 609 680 583 623 q 636 800 636 737 q 617 909 636 858 q 563 997 598 959 q 479 1057 529 1036 q 370 1079 430 1079 q 246 1056 300 1079 q 158 991 193 1033 q 106 893 123 950 q 88 768 88 836 "},"":{"x_min":50,"x_max":918.125,"ha":1138,"o":"m 879 713 l 858 893 q 846 966 852 938 q 825 1009 840 994 q 782 1028 809 1023 q 708 1033 755 1033 l 69 1033 l 590 319 l 50 -300 l 719 -300 q 825 -257 788 -300 q 876 -152 861 -215 l 918 27 l 855 27 q 796 -82 829 -41 q 721 -144 763 -123 q 625 -171 679 -165 q 501 -177 570 -177 l 241 -177 l 719 369 l 281 968 l 465 968 q 598 956 541 968 q 696 915 655 944 q 766 837 737 886 q 818 713 795 788 l 879 713 "},"é":{"x_min":51.390625,"x_max":705.609375,"ha":747,"o":"m 475 987 q 432 977 462 987 q 368 952 402 966 q 302 925 333 938 q 256 907 270 912 q 229 885 240 900 q 219 852 219 870 q 236 813 219 829 q 276 798 252 798 q 318 809 288 798 q 382 833 348 819 q 447 860 416 847 q 493 879 479 873 q 520 900 509 886 q 530 933 530 915 q 514 972 530 957 q 475 987 498 987 m 181 323 l 632 323 q 687 336 669 323 q 705 388 705 348 q 683 522 705 456 q 620 638 661 587 q 520 720 579 688 q 387 751 461 751 q 247 719 309 751 q 142 634 186 687 q 75 513 98 581 q 51 372 51 444 q 74 224 51 294 q 141 101 97 154 q 250 17 186 48 q 397 -13 313 -13 q 491 -2 448 -13 q 580 29 533 9 l 554 122 q 479 102 518 111 q 401 93 440 93 q 313 111 354 93 q 244 161 273 130 q 198 235 215 193 q 181 323 181 277 m 179 415 q 198 501 184 458 q 236 577 212 544 q 295 631 259 611 q 384 652 331 652 q 466 631 430 652 q 527 575 502 609 q 566 499 552 541 q 581 415 580 456 l 179 415 "},"":{"x_min":20.828125,"x_max":741.71875,"ha":763,"o":"m 20 138 q 68 170 43 154 q 119 201 93 187 q 173 224 145 215 q 229 233 201 233 q 307 222 269 233 q 384 200 345 212 q 459 178 422 188 q 534 168 497 168 q 643 190 593 168 q 741 244 694 212 l 741 352 q 697 320 720 337 q 647 290 673 304 q 595 268 622 276 q 541 259 568 259 q 469 270 505 259 q 396 293 433 280 q 321 316 359 305 q 244 326 283 326 q 126 302 181 326 q 20 245 70 277 l 20 138 m 20 304 q 121 368 69 338 q 236 398 173 398 q 312 388 275 398 q 386 366 350 377 q 460 343 423 354 q 534 333 497 333 q 643 355 591 333 q 741 409 695 377 l 741 516 q 697 484 720 501 q 648 454 673 468 q 596 433 623 441 q 541 425 569 425 q 472 435 508 425 q 398 457 436 445 q 321 479 361 469 q 243 490 281 490 q 125 466 180 490 q 20 411 70 443 l 20 304 "},"s":{"x_min":31.953125,"x_max":579.21875,"ha":620,"o":"m 31 105 q 86 55 54 77 q 156 18 119 33 q 231 -3 193 4 q 305 -11 269 -11 q 401 2 352 -11 q 489 42 450 15 q 554 109 529 69 q 579 204 579 150 q 549 303 579 262 q 475 373 519 344 q 379 421 431 401 q 284 459 327 440 q 210 499 240 479 q 180 550 180 519 q 191 593 180 575 q 220 625 202 612 q 261 643 238 637 q 306 648 284 648 q 373 637 343 648 q 429 612 404 626 q 473 587 454 598 q 508 576 493 576 q 546 593 531 576 q 561 630 561 609 q 531 685 561 662 q 460 723 501 708 q 377 746 419 739 q 311 753 336 753 q 222 739 266 753 q 141 700 177 726 q 82 637 105 675 q 59 550 59 600 q 89 457 59 494 q 163 395 119 421 q 259 351 206 369 q 354 313 311 333 q 428 268 398 293 q 458 204 458 243 q 444 156 458 176 q 409 121 430 136 q 363 100 388 107 q 313 93 337 93 q 251 100 277 93 q 202 119 225 107 q 156 148 179 132 q 106 184 133 165 l 31 105 "},"B":{"x_min":88.890625,"x_max":719.5,"ha":757,"o":"m 88 0 l 416 0 q 536 21 480 0 q 632 82 591 42 q 695 176 672 122 q 719 295 719 230 q 703 386 719 343 q 659 461 687 429 q 590 515 630 494 q 501 540 550 536 q 603 618 568 566 q 638 741 638 670 q 617 847 638 799 q 559 929 595 895 q 472 981 522 963 q 365 1000 422 1000 l 152 1000 q 106 985 125 1000 q 88 941 88 970 l 88 0 m 209 575 l 209 892 l 348 892 q 411 880 381 892 q 465 847 441 868 q 502 798 488 826 q 516 736 516 769 q 500 670 516 700 q 459 619 484 640 q 400 587 433 598 q 333 575 366 575 l 209 575 m 208 106 l 208 479 l 400 479 q 474 465 438 479 q 536 426 509 451 q 578 367 562 401 q 594 293 594 333 q 578 218 594 252 q 536 159 562 184 q 474 120 509 134 q 400 106 438 106 l 208 106 "},"…":{"x_min":57,"x_max":738,"ha":795,"o":"m 57 62 q 78 9 57 30 q 132 -12 100 -12 q 185 9 163 -12 q 207 62 207 30 q 185 115 207 94 q 132 137 163 137 q 78 115 100 137 q 57 62 57 94 m 322 62 q 343 9 322 30 q 397 -12 365 -12 q 450 9 428 -12 q 472 62 472 30 q 450 115 472 94 q 397 137 428 137 q 343 115 365 137 q 322 62 322 94 m 588 62 q 609 9 588 30 q 663 -12 631 -12 q 715 9 693 -12 q 738 62 738 31 q 715 115 738 93 q 663 137 693 137 q 609 115 631 137 q 588 62 588 94 "},"?":{"x_min":30.5625,"x_max":595.875,"ha":646,"o":"m 226 50 q 248 0 226 20 q 298 -19 270 -19 q 350 0 329 -19 q 372 51 372 20 q 350 103 372 83 q 298 123 329 123 q 246 102 266 123 q 226 50 226 80 m 355 491 q 452 522 408 500 q 529 580 497 545 q 578 661 561 615 q 595 762 595 708 q 571 873 595 825 q 506 955 547 922 q 412 1005 466 988 q 300 1022 358 1022 q 179 1000 237 1022 q 80 929 120 977 q 45 877 61 905 q 30 816 30 848 q 45 770 30 790 q 87 750 59 750 q 130 770 119 750 q 150 815 141 791 l 150 818 q 213 888 172 868 q 306 908 254 908 q 419 868 373 908 q 465 759 465 829 q 448 678 465 708 q 406 631 431 648 q 352 607 381 615 q 298 593 323 600 q 256 576 273 586 q 240 545 240 566 l 240 202 l 355 201 l 355 491 "},"H":{"x_min":88.890625,"x_max":861.1875,"ha":950,"o":"m 88 0 l 208 -1 l 208 459 l 740 459 l 740 45 q 757 4 740 21 q 798 -13 775 -13 q 842 3 823 -13 q 861 46 861 20 l 861 1001 l 740 1001 l 740 565 l 208 565 l 208 949 q 191 992 208 974 q 150 1011 175 1011 q 106 992 125 1011 q 88 949 88 974 l 88 0 "},"î":{"x_min":-83.34375,"x_max":347.25,"ha":264,"o":"m 130 975 q 115 971 123 975 q 100 965 106 968 l -47 907 q -83 854 -83 893 q -67 815 -83 830 q -29 800 -51 800 q 5 807 -16 800 q 52 825 27 815 q 97 845 76 834 q 131 859 119 855 q 165 844 144 854 q 210 825 187 834 q 254 807 233 815 q 288 800 276 800 q 329 816 312 800 q 347 857 347 833 q 312 909 347 895 l 162 965 q 146 971 155 968 q 130 975 137 975 m 90 -1 l 206 -1 l 206 694 q 190 734 206 716 q 151 752 175 752 q 108 736 126 752 q 90 694 90 720 l 90 -1 "},"c":{"x_min":51.390625,"x_max":607,"ha":625,"o":"m 51 368 q 72 224 51 293 q 136 103 94 155 q 241 20 179 51 q 384 -11 304 -11 q 441 -6 406 -11 q 506 8 475 -2 q 561 38 538 19 q 584 87 584 57 q 568 124 584 108 q 530 140 552 140 q 501 133 518 140 q 465 118 484 126 q 425 104 445 111 q 383 97 404 97 q 292 123 330 97 q 228 190 254 150 q 190 280 202 230 q 177 373 177 329 q 190 471 177 422 q 228 557 202 519 q 294 620 254 596 q 391 644 334 644 q 473 626 433 644 q 550 589 513 608 l 607 686 q 554 714 579 701 q 504 734 529 726 q 452 748 479 743 q 391 753 425 753 q 246 721 309 753 q 139 637 183 690 q 73 514 95 583 q 51 368 51 444 "},"¶":{"x_min":69.453125,"x_max":779.234375,"ha":849,"o":"m 602 -294 l 680 -293 l 682 927 q 709 927 693 927 q 741 928 726 926 q 768 938 757 930 q 779 963 779 945 q 768 989 779 979 q 741 1000 757 1000 l 338 1000 q 233 978 281 1000 q 147 920 184 957 q 90 833 111 883 q 69 727 69 783 q 90 621 69 670 q 147 535 111 572 q 233 477 184 498 q 338 455 281 455 l 434 455 l 434 -293 l 511 -293 l 512 926 l 604 927 l 602 -294 "},"•":{"x_min":12.5,"x_max":256.96875,"ha":344,"o":"m 12 500 q 22 452 12 475 q 48 413 31 430 q 87 387 65 397 q 134 377 109 377 q 221 413 186 377 q 256 500 256 448 q 221 586 256 551 q 134 622 186 622 q 87 612 109 622 q 48 586 65 602 q 22 547 31 569 q 12 500 12 525 "},"¥":{"x_min":54.171875,"x_max":748.671875,"ha":803,"o":"m 401 590 l 166 979 q 143 1002 158 994 q 111 1009 127 1009 q 71 994 88 1009 q 54 955 54 979 q 63 920 54 937 l 276 570 l 102 569 l 101 502 l 318 504 l 337 469 l 340 441 l 101 441 l 101 373 l 338 375 l 340 -2 l 462 -2 l 459 375 l 684 376 q 709 386 698 376 q 719 409 719 395 q 709 434 719 425 q 684 443 698 443 l 459 443 l 459 469 l 480 504 l 683 505 q 709 514 698 505 q 719 538 719 523 q 709 563 719 554 q 683 572 698 572 l 525 572 l 737 920 q 745 936 743 929 q 748 955 748 944 q 731 994 748 979 q 690 1009 713 1009 q 636 979 654 1009 l 401 590 "},"(":{"x_min":70.84375,"x_max":262.515625,"ha":283,"o":"m 70 513 q 74 441 70 493 q 84 324 77 390 q 102 189 91 259 q 127 61 112 119 q 159 -33 141 4 q 201 -71 177 -71 q 236 -59 218 -71 q 254 -27 254 -47 q 243 35 254 4 q 226 99 233 67 q 188 305 202 201 q 175 513 175 409 q 181 644 175 569 q 200 796 188 719 q 228 946 212 873 q 262 1072 244 1019 l 172 1089 q 102 804 133 945 q 70 513 70 662 "},"U":{"x_min":88.890625,"x_max":859.796875,"ha":949,"o":"m 88 354 q 118 201 88 269 q 198 85 147 133 q 320 11 250 37 q 473 -13 391 -13 q 627 11 556 -13 q 749 85 697 37 q 830 201 801 133 q 859 354 859 269 l 859 948 q 841 991 859 973 q 800 1009 823 1009 q 757 991 773 1009 q 740 948 740 973 l 740 352 q 720 244 740 293 q 666 161 701 195 q 582 109 632 127 q 475 90 533 90 q 366 109 415 90 q 281 161 316 127 q 227 244 247 195 q 208 352 208 293 l 208 1004 l 88 1004 l 88 354 "},"Ñ":{"x_min":89.328125,"x_max":856,"ha":945,"o":"m 325 1183 q 285 1167 301 1183 q 269 1127 269 1151 q 286 1088 269 1104 q 326 1073 302 1073 l 618 1072 q 659 1088 641 1072 q 676 1127 676 1104 q 659 1167 676 1151 q 619 1183 643 1183 l 325 1183 m 89 1 l 208 0 l 208 794 l 746 12 q 796 -13 764 -13 q 838 3 821 -13 q 856 45 856 20 l 856 950 q 838 993 856 975 q 794 1012 821 1012 q 753 993 771 1012 q 736 950 736 973 l 738 205 l 200 986 q 150 1012 182 1012 q 107 994 125 1012 q 89 951 89 976 l 89 1 "},"F":{"x_min":88.890625,"x_max":541.703125,"ha":572,"o":"m 88 0 l 209 0 l 209 443 l 476 443 q 516 459 500 443 q 533 498 533 475 q 516 536 533 520 q 476 552 498 552 l 212 552 l 212 891 l 541 891 l 541 1001 l 156 1001 q 109 984 129 1001 q 88 938 88 968 l 88 0 "},":":{"x_min":72.234375,"x_max":220.84375,"ha":276,"o":"m 72 54 q 94 3 72 25 q 145 -18 116 -18 q 197 3 176 -18 q 219 54 219 25 q 197 106 219 86 q 144 127 175 127 q 93 105 113 127 q 72 54 72 83 m 72 525 q 93 472 72 494 q 145 451 115 451 q 198 472 176 451 q 220 525 220 494 q 198 577 220 556 q 145 597 176 597 q 93 576 115 597 q 72 525 72 555 "},"Û":{"x_min":88.890625,"x_max":859.796875,"ha":949,"o":"m 472 1233 q 456 1229 465 1233 q 441 1223 448 1226 l 294 1165 q 258 1112 258 1151 q 274 1073 258 1088 q 312 1058 290 1058 q 347 1066 325 1058 q 393 1083 369 1073 q 439 1103 418 1093 q 473 1118 461 1113 q 507 1102 486 1112 q 552 1083 529 1093 q 596 1066 575 1073 q 630 1058 618 1058 q 671 1075 654 1058 q 688 1115 688 1091 q 654 1168 688 1154 l 504 1223 q 488 1229 497 1226 q 472 1233 479 1233 m 88 354 q 118 201 88 269 q 199 85 147 133 q 321 11 251 37 q 475 -13 391 -13 q 627 11 556 -13 q 750 85 698 37 q 830 201 801 133 q 859 354 859 269 l 859 948 q 841 991 859 973 q 800 1009 823 1009 q 757 991 773 1009 q 740 948 740 973 l 740 352 q 720 244 740 293 q 666 161 701 195 q 582 109 632 127 q 475 90 533 90 q 366 109 415 90 q 281 161 316 127 q 227 244 247 195 q 208 352 208 293 l 208 1004 l 88 1004 l 88 354 "},"*":{"x_min":45.375,"x_max":489.90625,"ha":536,"o":"m 237 824 l 124 913 q 98 923 109 923 q 61 906 77 923 q 45 870 45 890 q 71 828 45 840 l 205 772 l 77 717 q 46 672 46 703 q 62 637 46 652 q 96 622 77 622 q 128 633 109 622 q 168 660 148 645 q 206 691 188 676 q 234 715 224 706 l 219 547 l 316 547 l 301 715 q 328 692 310 708 q 366 660 346 676 q 406 633 387 645 q 438 622 426 622 q 473 637 459 622 q 488 672 488 652 q 457 717 488 703 l 330 772 l 463 828 q 482 845 476 834 q 489 869 489 856 q 474 906 489 890 q 437 923 459 923 q 410 913 424 923 l 298 824 q 309 901 302 860 q 316 977 316 941 q 301 1009 316 997 q 267 1022 287 1022 q 233 1009 248 1022 q 219 977 219 997 q 225 901 219 941 q 237 824 232 860 "},"†":{"x_min":72.234375,"x_max":830.625,"ha":871,"o":"m 72 661 l 72 544 l 376 544 l 376 -294 l 493 -294 l 493 544 l 770 544 q 812 561 794 544 q 830 602 830 577 q 812 644 830 627 q 770 661 794 661 l 491 661 l 491 958 q 476 1001 491 982 q 434 1020 461 1020 q 394 1001 409 1020 q 379 958 379 982 l 379 661 l 72 661 "},"°":{"x_min":69.453125,"x_max":438.921875,"ha":508,"o":"m 69 835 q 84 763 69 797 q 123 704 98 729 q 182 664 148 679 q 254 650 216 650 q 325 664 291 650 q 384 704 359 679 q 424 763 409 729 q 438 835 438 797 q 424 907 438 873 q 384 965 409 940 q 326 1005 359 990 q 254 1020 293 1020 q 182 1005 216 1020 q 123 965 148 990 q 84 906 98 940 q 69 835 69 872 m 129 835 q 165 923 129 887 q 254 960 201 960 q 343 923 306 960 q 379 835 379 887 q 343 746 379 782 q 254 710 306 710 q 165 746 201 710 q 129 835 129 782 "},"V":{"x_min":-4.171875,"x_max":777.84375,"ha":789,"o":"m 108 1013 l -4 972 l 330 47 q 352 4 340 20 q 394 -11 363 -11 q 436 4 425 -11 q 458 47 448 20 l 772 922 q 776 936 775 929 q 777 952 777 944 q 760 993 777 976 q 718 1011 743 1011 q 682 997 695 1011 q 661 963 668 983 l 395 193 l 108 1013 "},"\u001e":{"x_min":0,"x_max":0,"ha":0},"å":{"x_min":50.390625,"x_max":699,"ha":788,"o":"m 272 918 q 281 876 272 896 q 305 842 290 857 q 341 819 320 827 q 383 811 361 811 q 426 818 405 811 q 463 841 447 826 q 488 875 479 855 q 498 919 498 896 q 489 962 498 941 q 464 996 480 982 q 428 1019 448 1011 q 386 1028 408 1028 q 305 997 338 1028 q 272 918 272 966 m 334 919 q 349 954 334 941 q 384 968 363 968 q 420 954 405 968 q 436 917 436 940 q 420 883 436 898 q 384 867 405 867 q 349 883 363 867 q 334 919 334 899 m 582 654 q 488 727 543 702 q 372 752 433 752 q 235 719 294 752 q 134 632 175 686 q 71 511 93 579 q 50 372 50 443 q 71 231 50 300 q 132 108 92 162 q 233 20 172 54 q 372 -12 293 -12 q 492 15 437 -12 q 581 101 547 44 l 581 -5 l 699 -5 l 699 694 q 683 734 699 716 q 643 752 667 752 q 605 743 618 752 q 588 720 593 734 q 583 689 583 707 q 582 654 582 672 m 175 373 q 186 471 175 422 q 223 561 198 520 q 288 626 248 601 q 386 651 329 651 q 482 627 444 651 q 543 564 520 602 q 575 477 566 526 q 584 381 584 429 q 576 277 584 329 q 545 183 568 225 q 481 115 522 141 q 379 88 441 88 q 282 115 322 88 q 219 182 243 141 q 185 274 195 223 q 175 373 175 325 "},"":{"x_min":41.671875,"x_max":1107.03125,"ha":1129,"o":"m 41 -244 l 41 -300 l 408 -300 l 408 -244 l 291 -244 l 291 977 l 857 977 l 857 -244 l 740 -244 l 740 -300 l 1107 -300 l 1107 -244 l 984 -244 l 984 977 l 1107 977 l 1107 1033 l 41 1033 l 41 977 l 163 977 l 163 -244 l 41 -244 "},"0":{"x_min":51.390625,"x_max":705.609375,"ha":757,"o":"m 51 499 q 57 391 51 449 q 79 277 63 333 q 118 167 94 220 q 179 75 143 114 q 264 11 215 35 q 377 -13 313 -13 q 493 11 443 -13 q 579 76 543 35 q 639 170 615 117 q 678 282 663 224 q 699 399 693 340 q 705 508 705 457 q 698 615 705 558 q 676 728 691 672 q 636 835 661 784 q 575 925 611 886 q 489 988 538 965 q 377 1011 440 1011 q 264 986 313 1011 q 179 922 215 962 q 118 830 143 883 q 79 721 94 777 q 57 606 63 664 q 51 499 51 548 m 179 500 q 181 572 179 530 q 192 659 184 613 q 213 747 200 704 q 250 827 227 791 q 303 884 272 862 q 377 905 334 905 q 452 884 420 905 q 506 827 484 862 q 543 747 529 791 q 564 659 556 704 q 575 572 572 613 q 577 500 577 530 q 575 425 577 468 q 564 338 572 383 q 543 249 556 293 q 506 170 529 205 q 450 114 483 136 q 373 93 418 93 q 271 139 309 93 q 212 251 233 186 q 185 385 191 316 q 179 500 179 454 "},"”":{"x_min":8.328125,"x_max":451.421875,"ha":472,"o":"m 325 707 l 444 957 q 451 983 451 970 q 434 1025 451 1007 q 391 1043 416 1043 q 360 1034 375 1043 q 338 1009 345 1025 l 216 759 l 325 707 m 116 707 l 236 956 q 243 983 243 970 q 225 1024 243 1006 q 183 1043 208 1043 q 152 1033 166 1043 q 130 1009 137 1024 l 8 759 l 116 707 "},"¾":{"x_min":0,"x_max":0,"ha":0},"@":{"x_min":76.390625,"x_max":998.6875,"ha":1070,"o":"m 625 101 q 631 52 622 75 q 657 15 640 30 q 696 -9 673 0 q 744 -18 719 -18 q 859 22 811 -18 q 938 123 907 63 q 984 251 969 183 q 998 372 998 319 q 968 544 998 465 q 881 681 937 623 q 747 771 825 738 q 576 804 669 804 q 377 761 469 804 q 219 647 286 719 q 114 481 152 576 q 76 283 76 387 q 115 90 76 184 q 220 -75 154 -2 q 377 -193 287 -148 q 568 -238 466 -238 l 566 -183 q 511 -175 543 -183 q 455 -159 479 -168 q 170 147 231 -81 q 154 279 154 211 q 184 454 154 370 q 271 601 215 537 q 406 703 327 665 q 580 741 484 741 q 725 713 661 741 q 836 635 790 684 q 906 518 882 586 q 930 373 930 451 q 926 307 930 344 q 913 234 922 270 q 889 165 904 198 q 855 109 875 131 q 809 63 836 87 q 752 38 783 38 q 720 47 733 38 q 701 68 708 55 q 691 97 694 81 q 688 129 688 113 q 695 211 688 169 q 709 294 702 254 q 736 445 722 369 q 763 595 750 520 l 697 595 l 683 513 q 636 578 672 554 q 559 602 600 602 q 448 563 495 602 q 370 467 401 525 q 325 345 340 409 q 309 229 309 280 q 318 147 309 188 q 347 71 327 105 q 401 15 368 37 q 483 -5 434 -5 q 528 2 505 -5 q 570 25 551 11 q 603 59 588 40 q 625 101 618 79 m 484 48 q 434 63 452 48 q 404 100 415 77 q 391 150 394 123 q 387 202 387 177 q 395 297 387 240 q 424 409 404 355 q 477 503 444 463 q 561 543 511 543 q 602 532 584 543 q 632 504 620 522 q 650 466 644 487 q 657 425 657 445 q 653 366 657 402 q 641 287 650 329 q 618 203 632 245 q 586 126 605 161 q 542 70 568 91 q 484 48 516 48 "},"ö":{"x_min":51.390625,"x_max":707,"ha":760,"o":"m 51 372 q 72 230 51 300 q 136 106 94 161 q 240 18 179 51 q 380 -15 301 -15 q 519 18 458 -15 q 622 106 580 51 q 685 230 663 161 q 707 370 707 300 q 684 511 707 443 q 620 634 662 580 q 518 720 579 687 q 379 752 456 752 q 240 720 301 752 q 137 634 179 687 q 73 511 95 580 q 51 372 51 443 m 175 912 q 195 861 175 882 q 247 840 216 840 q 299 861 277 840 q 320 912 320 882 q 298 964 320 943 q 245 986 276 986 q 194 964 213 986 q 175 912 175 943 m 440 912 q 460 861 440 882 q 511 840 480 840 q 563 861 541 840 q 584 913 584 883 q 563 965 584 944 q 513 986 543 986 q 461 964 483 986 q 440 912 440 943 m 176 369 q 187 464 176 415 q 222 554 198 513 q 284 622 245 595 q 377 648 323 648 q 472 622 433 648 q 536 556 512 597 q 572 466 561 515 q 583 369 583 416 q 572 271 583 320 q 536 181 561 222 q 471 115 511 141 q 376 90 431 90 q 284 116 322 90 q 222 184 245 143 q 187 274 198 225 q 176 369 176 323 "},"i":{"x_min":90.28125,"x_max":206.96875,"ha":297,"o":"m 90 -1 l 206 -1 l 206 694 q 190 734 206 716 q 151 752 175 752 q 108 736 126 752 q 90 694 90 720 l 90 -1 m 97 916 q 112 882 97 897 q 147 868 127 868 q 182 882 168 868 q 197 918 197 897 q 181 952 197 938 q 147 966 166 966 q 111 952 125 966 q 97 916 97 937 "},"Õ":{"x_min":51,"x_max":923.296875,"ha":975,"o":"m 51 500 q 78 309 51 402 q 161 146 106 217 q 298 30 216 74 q 487 -13 380 -13 q 675 30 594 -13 q 812 145 756 73 q 895 309 867 217 q 923 499 923 400 q 895 689 923 596 q 812 853 867 781 q 676 968 758 924 q 488 1012 595 1012 q 299 969 381 1012 q 162 855 217 925 q 78 691 106 784 q 51 500 51 599 m 340 1183 q 300 1167 316 1183 q 284 1127 284 1151 q 301 1088 284 1104 q 341 1073 318 1073 l 633 1072 q 674 1088 657 1072 q 691 1127 691 1104 q 675 1167 691 1151 q 634 1183 658 1183 l 340 1183 m 183 500 q 198 641 183 569 q 250 772 214 713 q 343 869 285 832 q 483 907 401 907 q 629 869 570 907 q 725 772 688 832 q 777 637 762 712 q 792 487 792 562 q 775 344 792 415 q 720 217 758 273 q 624 126 683 161 q 483 91 566 91 q 343 129 401 91 q 250 225 285 166 q 198 357 214 284 q 183 500 183 430 "},"þ":{"x_min":0,"x_max":0,"ha":0},"]":{"x_min":56.953125,"x_max":272.25,"ha":318,"o":"m 272 1004 q 257 1042 272 1025 q 220 1059 243 1059 l 108 1059 q 72 1044 87 1059 q 56 1008 56 1029 q 67 977 56 987 q 92 962 77 966 q 123 958 106 958 q 155 958 141 958 l 155 41 l 80 41 l 80 -59 l 220 -59 q 257 -42 243 -59 q 272 -4 272 -25 l 272 1004 "},"m":{"x_min":89,"x_max":1086.234375,"ha":1175,"o":"m 89 0 l 207 0 l 207 489 q 219 551 207 522 q 254 603 232 580 q 305 637 276 625 q 368 650 334 650 q 431 637 401 650 q 483 603 461 625 q 518 551 505 580 q 532 487 532 521 l 532 0 l 647 0 l 647 487 q 660 551 647 521 q 695 602 673 580 q 746 637 716 623 q 809 650 776 650 q 872 637 843 650 q 923 602 901 623 q 957 551 944 580 q 969 487 969 521 l 969 46 q 986 5 969 23 q 1027 -13 1004 -13 q 1069 5 1052 -13 q 1086 46 1086 23 l 1086 492 q 1014 681 1086 612 q 823 750 943 750 q 692 718 752 750 q 598 623 632 686 q 513 719 570 686 q 388 753 455 753 q 285 729 336 753 q 204 661 234 705 q 203 692 204 676 q 197 721 202 708 q 180 743 191 734 q 148 751 169 751 q 107 733 125 751 q 89 691 89 715 l 89 0 "},"\u001b":{"x_min":0,"x_max":0,"ha":695},"8":{"x_min":77.390625,"x_max":679,"ha":757,"o":"m 249 561 q 175 523 207 548 q 121 461 142 497 q 88 385 99 426 q 77 302 77 344 q 98 178 77 236 q 159 76 120 120 q 253 8 198 33 q 377 -17 309 -17 q 501 8 445 -17 q 596 76 556 33 q 657 178 635 120 q 679 302 679 236 q 667 386 679 344 q 634 462 656 427 q 580 523 612 497 q 505 561 548 548 q 596 652 560 593 q 633 775 633 711 q 612 874 633 829 q 558 951 592 919 q 478 1001 524 983 q 378 1020 431 1020 q 279 1001 326 1020 q 198 951 232 983 q 143 874 163 919 q 123 775 123 829 q 158 651 123 705 q 249 561 194 597 m 378 612 q 320 626 346 612 q 275 660 293 639 q 248 710 257 682 q 238 768 238 737 q 248 826 238 798 q 276 873 257 853 q 320 905 295 893 q 377 917 345 917 q 479 873 439 917 q 519 769 519 830 q 509 710 519 739 q 480 660 499 682 q 436 626 462 639 q 378 612 410 612 m 205 305 q 216 380 205 344 q 249 443 227 416 q 303 487 271 471 q 377 502 336 502 q 450 487 418 502 q 506 446 483 472 q 541 384 529 419 q 553 311 553 350 q 541 234 553 272 q 508 165 530 196 q 453 115 486 134 q 377 96 421 96 q 303 114 336 96 q 249 163 271 133 q 216 230 227 193 q 205 305 205 268 "},"R":{"x_min":88.890625,"x_max":727.84375,"ha":740,"o":"m 88 48 q 106 4 88 23 q 150 -13 123 -13 q 191 4 173 -13 q 209 45 209 22 l 209 441 l 637 -33 l 727 41 l 350 443 q 370 440 361 440 q 390 440 380 440 q 506 456 451 440 q 604 506 562 473 q 670 589 645 540 q 695 704 695 638 q 672 825 695 770 q 606 918 648 880 q 509 978 565 957 q 387 1000 452 1000 q 238 997 312 1000 q 88 1002 163 995 l 88 48 m 209 537 l 209 888 l 383 888 q 455 875 420 888 q 516 836 490 861 q 556 779 541 812 q 572 707 572 745 q 558 640 572 670 q 521 586 544 609 q 467 550 498 563 q 401 537 436 537 l 209 537 "},"á":{"x_min":50.390625,"x_max":699,"ha":788,"o":"m 494 987 q 452 977 481 987 q 387 952 422 966 q 321 925 352 938 q 276 907 290 912 q 249 885 259 900 q 238 852 238 870 q 255 813 238 829 q 295 798 272 798 q 338 809 308 798 q 402 833 368 819 q 467 860 436 847 q 512 879 498 873 q 539 900 529 886 q 550 933 550 915 q 534 972 550 957 q 494 987 518 987 m 582 654 q 488 727 543 702 q 372 752 433 752 q 235 719 294 752 q 134 632 175 686 q 71 511 93 579 q 50 372 50 443 q 71 231 50 300 q 132 108 92 162 q 233 20 172 54 q 372 -12 293 -12 q 492 15 437 -12 q 581 101 547 44 l 581 -5 l 699 -5 l 699 694 q 683 734 699 716 q 643 752 667 752 q 605 743 618 752 q 588 720 593 734 q 583 689 583 707 q 582 654 582 672 m 175 373 q 186 471 175 422 q 223 561 198 520 q 288 626 248 601 q 386 651 329 651 q 482 627 444 651 q 543 564 520 602 q 575 477 566 526 q 584 381 584 429 q 576 277 584 329 q 545 183 568 225 q 481 115 522 141 q 379 88 441 88 q 282 115 322 88 q 219 182 243 141 q 185 274 195 223 q 175 373 175 325 "},"×":{"x_min":0,"x_max":0,"ha":0},"o":{"x_min":51.390625,"x_max":707,"ha":760,"o":"m 51 372 q 72 230 51 300 q 136 106 94 161 q 240 18 179 51 q 380 -15 301 -15 q 519 18 458 -15 q 622 106 580 51 q 685 230 663 161 q 707 370 707 300 q 684 511 707 443 q 620 634 662 580 q 518 720 579 687 q 379 752 456 752 q 240 720 301 752 q 137 634 179 687 q 73 511 95 580 q 51 372 51 443 m 176 370 q 187 465 176 416 q 222 554 198 513 q 285 622 247 595 q 377 648 323 648 q 472 622 433 648 q 536 557 511 597 q 572 468 561 518 q 583 372 583 419 q 572 273 583 323 q 536 182 561 223 q 472 115 512 141 q 376 90 433 90 q 284 116 322 90 q 222 184 245 143 q 187 275 198 226 q 176 370 176 325 "},"5":{"x_min":62.5,"x_max":668.109375,"ha":757,"o":"m 287 1000 q 233 988 247 1000 q 212 936 219 976 l 159 579 q 156 560 158 569 q 155 543 155 551 q 170 510 155 523 q 204 496 186 496 q 234 503 218 496 q 270 517 251 510 q 311 532 290 525 q 356 539 333 539 q 434 523 400 539 q 491 479 468 507 q 525 414 513 451 q 537 336 537 378 q 525 253 537 294 q 488 177 512 211 q 429 122 465 143 q 347 101 394 101 q 270 117 305 101 q 206 153 234 133 q 156 188 177 172 q 122 204 134 204 q 80 187 98 204 q 62 147 62 171 q 79 104 62 125 q 121 65 97 83 q 172 33 145 47 q 216 12 198 19 q 350 -13 284 -13 q 482 15 423 -13 q 582 94 541 44 q 645 207 623 143 q 668 341 668 272 q 649 456 668 401 q 595 553 630 511 q 509 621 559 596 q 395 646 458 646 q 281 622 336 646 l 323 892 l 647 892 l 661 1000 l 287 1000 "},"õ":{"x_min":51.390625,"x_max":707,"ha":760,"o":"m 51 372 q 72 230 51 300 q 136 106 94 161 q 240 18 179 51 q 380 -15 301 -15 q 519 18 458 -15 q 622 106 580 51 q 685 230 663 161 q 707 370 707 300 q 684 511 707 443 q 620 634 662 580 q 518 720 579 687 q 379 752 456 752 q 240 720 301 752 q 137 634 179 687 q 73 511 95 580 q 51 372 51 443 m 231 925 q 192 909 208 925 q 176 869 176 893 q 193 830 176 845 q 233 815 209 815 l 525 813 q 566 829 548 813 q 583 869 583 845 q 566 909 583 893 q 526 925 550 925 l 231 925 m 176 370 q 187 465 176 416 q 222 554 198 513 q 285 622 247 595 q 377 648 323 648 q 472 622 433 648 q 536 557 511 597 q 572 468 561 518 q 583 372 583 419 q 572 273 583 323 q 536 182 561 223 q 472 115 512 141 q 376 90 433 90 q 284 116 322 90 q 222 184 245 143 q 187 275 198 226 q 176 370 176 325 "},"7":{"x_min":91.671875,"x_max":684.78125,"ha":757,"o":"m 91 1000 l 91 888 l 543 888 l 179 66 q 175 44 175 55 q 192 3 175 20 q 233 -13 209 -13 q 266 -4 251 -13 q 288 22 281 5 l 679 918 q 684 944 684 929 q 666 984 684 970 q 623 998 648 998 l 91 1000 "},"K":{"x_min":88.890625,"x_max":793.125,"ha":789,"o":"m 88 0 l 209 0 l 209 478 l 687 7 q 737 -13 708 -13 q 776 2 759 -13 q 793 41 793 17 q 772 88 793 67 l 320 528 l 752 930 l 666 1008 l 208 576 l 208 951 q 190 994 208 977 q 147 1011 172 1011 q 106 992 123 1011 q 88 951 88 974 l 88 0 "},",":{"x_min":2.78125,"x_max":236.125,"ha":258,"o":"m 127 149 l 8 -101 q 2 -128 2 -112 q 20 -169 2 -151 q 61 -188 37 -188 q 92 -178 77 -188 q 113 -154 106 -169 l 236 96 l 127 149 "},"d":{"x_min":51.40625,"x_max":700,"ha":789,"o":"m 582 639 q 495 723 550 695 q 377 752 441 752 q 237 719 298 752 q 135 632 176 687 q 72 509 94 578 q 51 367 51 439 q 72 232 51 300 q 132 110 93 164 q 230 22 172 56 q 363 -11 288 -11 q 487 18 430 -11 q 580 105 544 48 q 580 66 580 87 q 585 27 580 45 q 602 -1 590 10 q 641 -13 615 -13 q 682 4 665 -13 q 700 45 700 21 l 700 1062 l 582 1062 l 582 639 m 376 98 q 282 124 320 98 q 220 189 244 150 q 185 278 195 229 q 174 373 174 327 q 186 468 174 420 q 224 555 198 516 q 289 618 249 594 q 383 643 329 643 q 483 616 444 643 q 543 547 522 588 q 573 454 565 505 q 581 354 581 402 q 570 259 581 305 q 533 178 558 213 q 469 120 508 143 q 376 98 430 98 "},"¨":{"x_min":-40.28125,"x_max":372.25,"ha":332,"o":"m -40 876 q -18 824 -40 844 q 34 804 4 804 q 86 826 65 804 q 106 877 106 848 q 85 928 106 907 q 34 950 63 950 q -18 929 2 950 q -40 876 -40 908 m 226 876 q 247 826 226 848 q 297 804 268 804 q 350 824 329 804 q 372 876 372 844 q 350 929 372 908 q 297 950 329 950 q 246 927 266 950 q 226 876 226 905 "},"Ô":{"x_min":51,"x_max":923.296875,"ha":975,"o":"m 51 500 q 78 309 51 402 q 161 146 106 217 q 298 30 216 74 q 487 -13 380 -13 q 675 30 594 -13 q 812 145 756 73 q 895 309 867 217 q 923 499 923 400 q 895 689 923 596 q 812 853 867 781 q 676 968 758 924 q 488 1012 595 1012 q 299 969 381 1012 q 162 855 217 925 q 78 691 106 784 q 51 500 51 599 m 486 1233 q 470 1229 479 1233 q 455 1223 462 1226 l 308 1165 q 272 1112 272 1151 q 288 1073 272 1088 q 326 1058 304 1058 q 361 1066 338 1058 q 407 1083 383 1073 q 453 1103 431 1093 q 487 1118 475 1113 q 521 1102 500 1112 q 566 1083 543 1093 q 610 1066 588 1073 q 644 1058 632 1058 q 685 1075 668 1058 q 702 1115 702 1091 q 668 1168 702 1154 l 518 1223 q 502 1229 511 1226 q 486 1233 493 1233 m 183 500 q 198 641 183 569 q 250 772 214 713 q 343 869 285 832 q 483 907 401 907 q 629 869 570 907 q 725 772 688 832 q 777 637 762 712 q 792 487 792 562 q 775 344 792 415 q 720 217 758 273 q 624 126 683 161 q 483 91 566 91 q 343 129 401 91 q 250 225 285 166 q 198 357 214 284 q 183 500 183 430 "},"E":{"x_min":88.890625,"x_max":598.65625,"ha":621,"o":"m 88 65 q 104 18 88 37 q 150 0 120 0 l 598 0 l 598 109 l 211 109 l 211 444 l 486 444 q 525 460 509 444 q 541 500 541 476 q 525 538 541 523 q 484 554 508 554 l 211 554 l 211 890 l 500 890 q 540 906 523 890 q 556 945 556 922 q 540 984 556 968 q 501 1000 523 1000 l 151 1000 q 120 1000 136 1000 q 90 1002 105 1000 l 88 65 "},"Y":{"x_min":-1.390625,"x_max":698.671875,"ha":703,"o":"m 98 1017 l -1 953 q 2 944 1 949 q 5 935 2 939 l 290 468 l 290 49 q 306 5 290 23 q 351 -13 323 -13 q 395 5 377 -13 q 412 49 412 23 l 412 468 l 687 920 q 695 936 693 928 q 698 955 698 944 q 681 994 698 978 q 640 1009 663 1009 q 586 978 604 1009 l 351 589 l 98 1017 "},"\"":{"x_min":69.453125,"x_max":329.1875,"ha":399,"o":"m 69 687 l 156 687 l 184 1000 l 97 1000 l 69 687 m 213 687 l 301 687 l 329 1000 l 241 1000 l 213 687 "},"‹":{"x_min":54.171875,"x_max":295.859375,"ha":350,"o":"m 248 656 q 217 646 231 656 q 194 622 202 636 l 70 411 q 59 393 65 402 q 54 372 54 383 q 62 347 54 361 q 76 323 70 333 l 194 119 q 215 93 202 103 q 247 83 229 83 q 280 97 265 83 q 295 131 295 112 q 291 151 295 142 q 281 170 287 160 l 161 369 l 283 568 q 294 605 294 586 q 281 640 294 625 q 248 656 269 656 "},"ê":{"x_min":51.390625,"x_max":705.609375,"ha":747,"o":"m 372 975 q 356 971 365 975 q 341 965 348 968 l 194 907 q 158 854 158 893 q 174 815 158 830 q 212 800 190 800 q 247 807 225 800 q 293 825 269 815 q 339 845 318 834 q 373 859 361 855 q 407 844 386 854 q 452 825 429 834 q 496 807 475 815 q 530 800 518 800 q 571 816 554 800 q 588 857 588 833 q 554 909 588 895 l 404 965 q 388 971 397 968 q 372 975 379 975 m 181 323 l 632 323 q 687 336 669 323 q 705 388 705 348 q 683 522 705 456 q 620 638 661 587 q 520 720 579 688 q 387 751 461 751 q 247 719 309 751 q 142 634 186 687 q 75 513 98 581 q 51 372 51 444 q 74 224 51 294 q 141 101 97 154 q 250 17 186 48 q 397 -13 313 -13 q 491 -2 448 -13 q 580 29 533 9 l 554 122 q 479 102 518 111 q 401 93 440 93 q 313 111 354 93 q 244 161 273 130 q 198 235 215 193 q 181 323 181 277 m 179 415 q 198 501 184 458 q 236 577 212 544 q 295 631 259 611 q 384 652 331 652 q 466 631 430 652 q 527 575 502 609 q 566 499 552 541 q 581 415 580 456 l 179 415 "},"Ï":{"x_min":-56.953125,"x_max":355.578125,"ha":297,"o":"m -56 1134 q -34 1082 -56 1102 q 18 1062 -12 1062 q 69 1084 48 1062 q 90 1136 90 1107 q 68 1186 90 1165 q 18 1208 47 1208 q -35 1187 -13 1208 q -56 1134 -56 1166 m 209 1134 q 230 1084 209 1107 q 280 1062 251 1062 q 334 1082 312 1062 q 355 1134 355 1102 q 334 1187 355 1166 q 280 1208 312 1208 q 229 1186 250 1208 q 209 1134 209 1163 m 88 0 l 208 0 l 208 950 q 191 993 208 975 q 150 1011 175 1011 q 106 993 125 1011 q 88 950 88 975 l 88 0 "},"„":{"x_min":2.78125,"x_max":430.59375,"ha":456,"o":"m 127 148 l 8 -101 q 2 -127 2 -112 q 20 -169 2 -151 q 61 -187 37 -187 q 92 -178 77 -187 q 113 -154 106 -169 l 236 95 l 127 148 m 322 149 l 202 -101 q 197 -128 197 -112 q 214 -169 197 -151 q 255 -188 231 -188 q 286 -178 272 -188 q 308 -154 301 -169 l 430 96 l 322 149 "},"Â":{"x_min":13.890625,"x_max":866.734375,"ha":858,"o":"m 427 1233 q 412 1229 420 1233 q 397 1223 404 1226 l 250 1165 q 213 1112 213 1151 q 229 1073 213 1088 q 268 1058 245 1058 q 302 1066 280 1058 q 349 1083 325 1073 q 395 1103 373 1093 q 429 1118 416 1113 q 463 1102 441 1112 q 507 1083 484 1093 q 552 1066 530 1073 q 586 1058 573 1058 q 627 1075 609 1058 q 644 1115 644 1091 q 609 1168 644 1154 l 459 1223 q 443 1229 452 1226 q 427 1233 434 1233 m 425 1011 q 370 988 390 1011 q 340 936 351 965 l 20 76 q 13 43 13 58 q 29 2 13 19 q 70 -13 45 -13 q 105 -2 90 -13 q 127 27 120 9 l 198 215 l 659 215 l 747 -13 l 866 20 l 518 936 q 485 991 504 972 q 425 1011 466 1011 m 231 320 l 429 866 l 625 320 l 231 320 "},"\u0006":{"x_min":0,"x_max":0,"ha":0},"Í":{"x_min":-5.5625,"x_max":305.578125,"ha":297,"o":"m 250 1245 q 207 1235 237 1245 q 143 1211 177 1225 q 77 1184 108 1197 q 31 1165 45 1170 q 4 1143 15 1158 q -5 1111 -5 1129 q 11 1072 -5 1087 q 51 1057 27 1057 q 93 1067 63 1057 q 157 1091 123 1077 q 222 1118 191 1105 q 268 1137 254 1132 q 295 1159 284 1144 q 305 1191 305 1173 q 289 1230 305 1215 q 250 1245 273 1245 m 88 0 l 208 0 l 208 950 q 191 993 208 975 q 150 1011 175 1011 q 106 993 125 1011 q 88 950 88 975 l 88 0 "},"´":{"x_min":1.390625,"x_max":311.140625,"ha":311,"o":"m 272 999 l 38 907 q 11 885 22 900 q 1 853 1 871 q 18 814 1 829 q 58 799 34 799 q 105 811 70 799 q 181 840 140 824 q 259 872 222 857 q 311 894 295 887 l 272 999 "},"ì":{"x_min":-25,"x_max":286.140625,"ha":264,"o":"m 286 852 q 275 885 286 870 q 248 907 265 900 q 202 925 233 912 q 137 952 172 938 q 72 977 102 966 q 29 987 41 987 q -9 972 5 987 q -25 934 -25 958 q -14 901 -25 915 q 12 880 -4 887 q 57 861 26 875 q 123 834 88 848 q 188 810 158 820 q 230 800 218 800 q 270 814 254 800 q 286 852 286 829 m 90 -1 l 206 -1 l 206 694 q 190 734 206 716 q 151 752 175 752 q 108 736 126 752 q 90 694 90 720 l 90 -1 "},"±":{"x_min":61.109375,"x_max":702.828125,"ha":858,"o":"m 702 120 l 61 120 l 61 26 l 702 26 l 702 120 m 429 629 l 334 629 l 334 459 l 61 459 l 61 365 l 334 365 l 334 195 l 429 195 l 429 365 l 702 365 l 702 459 l 429 459 l 429 629 "},"Ú":{"x_min":88.890625,"x_max":859.796875,"ha":949,"o":"m 575 1245 q 532 1235 562 1245 q 468 1211 502 1225 q 402 1184 433 1197 q 356 1165 370 1170 q 329 1143 340 1158 q 319 1111 319 1129 q 336 1072 319 1087 q 376 1057 352 1057 q 418 1067 388 1057 q 482 1091 448 1077 q 547 1118 516 1105 q 593 1137 579 1132 q 620 1159 609 1144 q 630 1191 630 1173 q 614 1230 630 1215 q 575 1245 598 1245 m 88 354 q 118 201 88 269 q 199 85 147 133 q 321 11 251 37 q 475 -13 391 -13 q 627 11 556 -13 q 750 85 698 37 q 830 201 801 133 q 859 354 859 269 l 859 948 q 841 991 859 973 q 800 1009 823 1009 q 757 991 773 1009 q 740 948 740 973 l 740 352 q 720 244 740 293 q 666 161 701 195 q 582 109 632 127 q 475 90 533 90 q 366 109 415 90 q 281 161 316 127 q 227 244 247 195 q 208 352 208 293 l 208 1004 l 88 1004 l 88 354 "},"|":{"x_min":69.453125,"x_max":156.953125,"ha":226,"o":"m 69 0 l 156 0 l 156 1000 l 69 1000 l 69 0 "},"§":{"x_min":43.0625,"x_max":747.28125,"ha":793,"o":"m 190 630 q 134 587 161 613 q 87 529 108 561 q 54 463 66 498 q 43 394 43 429 q 79 256 43 311 q 172 165 116 202 q 293 101 227 127 q 413 48 358 75 q 506 -9 469 22 q 543 -90 543 -41 q 525 -146 543 -125 q 479 -179 506 -168 q 421 -195 452 -191 q 363 -200 390 -200 q 275 -187 306 -200 q 226 -155 243 -175 q 204 -114 209 -136 q 193 -73 198 -93 q 178 -41 187 -54 q 145 -29 169 -29 q 98 -50 115 -29 q 81 -100 81 -72 q 109 -195 81 -155 q 177 -260 136 -234 q 270 -298 219 -286 q 368 -311 320 -311 q 475 -299 422 -311 q 570 -260 527 -287 q 640 -189 613 -233 q 666 -83 666 -145 q 642 11 666 -33 q 577 84 618 56 q 643 122 612 98 q 697 177 675 147 q 734 244 720 208 q 747 319 747 280 q 709 446 747 394 q 613 536 670 498 q 488 601 555 573 q 363 657 420 629 q 267 720 305 686 q 229 802 229 754 q 245 856 229 834 q 287 891 262 877 q 341 909 312 904 q 397 915 370 915 q 485 907 451 915 q 543 880 519 898 q 588 834 568 862 q 638 763 609 805 l 726 822 q 665 914 693 876 q 604 977 637 952 q 525 1012 570 1001 q 413 1023 480 1023 q 303 1013 358 1023 q 204 977 248 1002 q 131 908 159 951 q 104 798 104 865 q 127 704 104 750 q 190 630 150 658 m 283 572 l 500 465 q 546 439 523 454 q 587 406 569 425 q 616 363 605 387 q 627 311 627 340 q 611 253 627 279 q 571 206 595 227 q 518 170 547 186 q 463 147 490 155 l 284 237 q 239 263 262 248 q 197 296 216 277 q 165 338 177 315 q 152 388 152 361 q 164 443 152 416 q 195 495 176 470 q 236 539 213 519 q 283 572 259 559 "},"Ý":{"x_min":0,"x_max":0,"ha":0},"b":{"x_min":88.890625,"x_max":733.390625,"ha":785,"o":"m 88 45 q 106 3 88 22 q 148 -15 123 -15 q 184 -4 172 -15 q 200 23 195 6 q 204 58 204 40 q 204 94 204 77 q 293 12 238 40 q 412 -15 348 -15 q 554 18 494 -15 q 654 106 615 51 q 713 231 694 161 q 733 375 733 301 q 713 511 733 443 q 653 632 693 579 q 555 719 613 686 q 420 752 497 752 q 302 725 358 752 q 208 647 245 697 l 208 1062 l 88 1062 l 88 45 m 204 366 q 213 465 204 415 q 245 555 222 515 q 306 621 268 595 q 405 647 345 647 q 501 622 462 647 q 564 556 540 597 q 599 467 588 516 q 609 370 609 418 q 599 275 609 325 q 566 184 588 225 q 505 118 543 144 q 412 91 468 91 q 311 115 351 91 q 247 177 272 138 q 213 265 223 216 q 204 366 204 315 "},"q":{"x_min":51.71875,"x_max":699,"ha":788,"o":"m 580 645 q 487 725 544 697 q 367 753 430 753 q 230 718 289 753 q 132 630 172 684 q 71 506 92 575 q 51 368 51 437 q 72 231 51 298 q 134 109 93 164 q 234 22 175 55 q 368 -10 293 -10 q 488 16 432 -10 q 580 96 544 44 l 580 -294 l 699 -294 l 699 693 q 682 734 699 716 q 642 753 665 753 q 603 743 615 753 q 585 717 590 733 q 581 682 581 701 q 580 645 581 663 m 175 375 q 186 471 175 422 q 220 559 197 520 q 283 623 244 598 q 379 648 322 648 q 451 634 416 648 q 513 593 486 619 q 552 541 538 569 q 573 481 566 512 q 582 418 580 451 q 584 354 584 386 q 573 259 584 305 q 537 175 562 212 q 472 115 512 138 q 377 93 433 93 q 283 119 322 93 q 220 186 244 145 q 186 277 197 227 q 175 375 175 327 "},"":{"x_min":23.609375,"x_max":730.609375,"ha":772,"o":"m 561 518 q 577 516 568 515 q 594 516 586 516 q 697 548 665 519 q 730 651 730 577 l 730 655 l 698 655 q 690 633 701 641 q 663 620 679 625 q 631 616 647 616 q 607 615 615 615 q 430 619 518 615 q 254 623 343 623 q 165 617 205 623 q 97 593 126 611 q 52 541 69 575 q 33 452 36 508 l 65 452 q 111 512 76 498 q 186 526 145 526 l 216 526 q 215 443 216 486 q 212 355 215 400 q 204 268 209 311 q 188 186 198 225 q 162 127 180 155 q 108 100 144 100 q 67 122 76 100 q 56 172 58 145 l 23 172 q 25 113 23 145 q 35 53 26 81 q 63 5 44 25 q 120 -13 83 -13 q 162 -4 144 -13 q 193 20 180 5 q 215 55 206 36 q 231 95 225 75 q 250 192 244 136 q 259 309 256 248 q 263 427 262 369 q 263 526 263 484 q 352 523 308 525 q 440 522 395 522 q 436 395 437 458 q 434 269 434 333 q 435 178 434 227 q 448 86 436 129 q 490 14 461 43 q 577 -13 519 -13 q 654 5 625 -13 q 698 56 683 25 q 719 125 713 87 q 725 202 725 163 l 725 209 l 690 209 q 686 162 688 190 q 675 108 683 134 q 651 63 666 81 q 609 45 636 45 q 573 65 584 45 q 558 111 562 84 q 554 165 554 138 q 555 208 555 193 l 555 297 q 557 407 555 352 q 561 518 559 462 "},"Ö":{"x_min":51,"x_max":923.296875,"ha":975,"o":"m 51 500 q 78 309 51 402 q 161 146 106 217 q 298 30 216 74 q 487 -13 380 -13 q 675 30 594 -13 q 812 145 756 73 q 895 309 867 217 q 923 499 923 400 q 895 689 923 596 q 812 853 867 781 q 676 968 758 924 q 488 1012 595 1012 q 299 969 381 1012 q 162 855 217 925 q 78 691 106 784 q 51 500 51 599 m 90 1029 q 109 978 90 1000 q 158 957 127 957 q 208 977 187 957 q 229 1026 229 998 q 208 1076 229 1055 q 159 1097 187 1097 q 110 1077 130 1097 q 90 1029 90 1057 m 745 1025 q 767 977 745 997 q 816 957 788 957 q 866 978 845 957 q 886 1029 886 1000 q 866 1077 886 1057 q 816 1098 845 1098 q 765 1077 784 1098 q 745 1025 745 1055 m 183 500 q 198 641 183 569 q 250 772 214 713 q 343 869 285 832 q 483 907 401 907 q 629 869 570 907 q 725 772 688 832 q 777 637 762 712 q 792 487 792 562 q 775 344 792 415 q 720 217 758 273 q 624 126 683 161 q 483 91 566 91 q 343 129 401 91 q 250 225 285 166 q 198 357 214 284 q 183 500 183 430 "},"z":{"x_min":37.5,"x_max":601.4375,"ha":626,"o":"m 420 634 l 48 86 q 37 51 37 68 q 53 13 37 27 q 91 0 69 0 l 540 0 q 582 14 563 0 q 601 54 601 29 q 582 92 601 77 q 540 106 563 106 l 200 106 l 573 657 q 582 672 579 663 q 586 691 586 682 q 570 728 586 715 q 531 741 555 741 l 52 741 l 52 634 l 420 634 "},"™":{"x_min":68.0625,"x_max":995.90625,"ha":1070,"o":"m 101 1000 q 77 990 87 1000 q 68 966 68 980 q 77 942 68 952 q 101 932 87 932 l 201 932 l 201 488 l 275 488 l 275 932 l 376 932 q 400 941 390 932 q 411 965 411 951 q 401 989 411 979 q 377 1000 391 1000 l 101 1000 m 398 481 q 397 491 398 486 q 398 498 397 495 l 476 961 q 493 993 479 980 q 527 1007 508 1007 q 584 963 572 1007 l 697 579 l 809 963 q 865 1007 822 1007 q 899 993 884 1007 q 916 961 913 980 l 994 498 q 995 481 995 493 l 920 483 l 859 904 l 734 480 l 659 480 l 534 904 l 472 483 l 398 481 "},"\u000b":{"x_min":0,"x_max":0,"ha":0},"":{"x_min":29.171875,"x_max":826.453125,"ha":858,"o":"m 443 933 l 412 933 l 29 0 l 826 0 l 443 933 m 387 700 l 645 62 l 127 62 l 387 700 "},"ã":{"x_min":50.390625,"x_max":699,"ha":788,"o":"m 245 925 q 206 909 222 925 q 190 869 190 893 q 206 830 190 845 q 247 815 223 815 l 538 813 q 579 829 562 813 q 597 869 597 845 q 580 909 597 893 q 540 925 563 925 l 245 925 m 582 654 q 488 727 543 702 q 372 752 433 752 q 235 719 294 752 q 134 632 175 686 q 71 511 93 579 q 50 372 50 443 q 71 231 50 300 q 132 108 92 162 q 233 20 172 54 q 372 -12 293 -12 q 492 15 437 -12 q 581 101 547 44 l 581 -5 l 699 -5 l 699 694 q 683 734 699 716 q 643 752 667 752 q 605 743 618 752 q 588 720 593 734 q 583 689 583 707 q 582 654 582 672 m 175 373 q 186 471 175 422 q 223 561 198 520 q 288 626 248 601 q 386 651 329 651 q 482 627 444 651 q 543 564 520 602 q 575 477 566 526 q 584 381 584 429 q 576 277 584 329 q 545 183 568 225 q 481 115 522 141 q 379 88 441 88 q 282 115 322 88 q 219 182 243 141 q 185 274 195 223 q 175 373 175 325 "},"\u0019":{"x_min":-69.453125,"x_max":358.359375,"ha":286,"o":"m 318 1029 q 277 1001 287 1029 l -65 44 q -69 20 -69 32 q -59 -10 -69 2 q -30 -24 -50 -24 q -4 -14 -16 -24 q 11 6 6 -5 l 355 962 q 358 970 358 966 q 358 980 358 976 q 347 1014 358 999 q 318 1029 337 1029 "},"æ":{"x_min":51.390625,"x_max":1216.765625,"ha":1257,"o":"m 580 646 q 487 723 544 697 q 369 748 430 748 q 230 714 290 748 q 131 625 170 680 q 71 501 91 571 q 51 361 51 432 q 72 223 51 290 q 134 104 93 157 q 234 19 175 51 q 369 -12 293 -12 q 491 16 433 -12 q 581 104 550 45 l 581 -2 l 690 -2 l 690 89 q 790 11 732 34 q 916 -12 848 -12 q 968 -8 947 -12 q 1007 0 988 -5 q 1043 13 1025 5 q 1090 29 1062 20 l 1054 127 q 990 102 1023 112 q 922 93 957 93 q 832 111 873 93 q 759 161 790 129 q 711 235 729 193 q 694 326 694 277 l 1145 326 q 1164 325 1155 326 q 1183 325 1173 325 q 1211 350 1207 333 q 1216 389 1216 366 q 1194 517 1216 452 q 1132 633 1172 582 q 1034 717 1091 684 q 908 750 977 750 q 786 722 845 750 q 688 646 727 694 q 689 681 688 662 q 686 716 690 700 q 670 742 682 732 q 636 753 659 753 q 600 742 612 753 q 584 716 588 732 q 580 680 580 700 q 580 646 580 662 m 384 100 q 287 123 327 100 q 222 184 247 147 q 185 270 197 222 q 173 368 173 318 q 184 462 173 413 q 220 550 195 511 q 281 616 244 590 q 373 641 319 641 q 470 619 430 641 q 534 559 509 597 q 570 475 559 522 q 581 377 581 427 q 572 281 581 330 q 539 191 562 231 q 478 125 516 151 q 384 100 440 100 m 694 415 l 694 443 q 711 521 694 484 q 755 586 727 558 q 820 631 783 615 q 898 647 857 647 q 983 626 948 647 q 1041 572 1018 605 q 1077 498 1063 540 q 1097 415 1090 456 l 694 415 "},"®":{"x_min":77.78125,"x_max":1113.984375,"ha":1192,"o":"m 77 501 q 118 300 77 394 q 229 135 159 205 q 394 24 300 65 q 595 -16 488 -16 q 797 24 702 -16 q 961 135 891 65 q 1073 300 1032 205 q 1113 501 1113 394 q 1073 702 1113 608 q 961 867 1032 797 q 797 978 891 937 q 595 1019 702 1019 q 394 978 488 1019 q 229 867 300 937 q 118 702 159 797 q 77 501 77 608 m 143 501 q 177 679 143 595 q 273 825 212 762 q 417 924 334 887 q 595 961 500 961 q 772 924 690 961 q 917 825 855 887 q 1014 678 979 762 q 1050 501 1050 594 q 1014 323 1050 406 q 917 177 979 240 q 772 78 855 115 q 595 41 690 41 q 417 78 500 41 q 273 177 334 115 q 177 323 212 240 q 143 501 143 406 m 418 229 q 430 200 418 212 q 459 187 442 187 q 488 199 476 187 q 501 227 501 211 l 501 465 l 735 202 q 767 187 748 187 q 795 199 782 187 q 807 227 807 211 q 796 254 807 243 l 595 466 q 671 470 634 461 q 737 500 707 479 q 783 554 766 522 q 801 629 801 587 q 785 704 801 670 q 744 763 770 738 q 683 800 719 787 q 607 813 648 813 l 460 813 q 430 801 442 813 q 418 770 418 788 l 418 229 m 501 529 l 501 737 l 605 737 q 646 729 626 737 q 681 708 666 722 q 706 675 696 694 q 716 634 716 657 q 687 559 716 590 q 614 529 659 529 l 501 529 "},"É":{"x_min":88.890625,"x_max":598.65625,"ha":621,"o":"m 411 1245 q 368 1235 398 1245 q 304 1211 338 1225 q 238 1184 269 1197 q 193 1165 206 1170 q 165 1143 176 1158 q 155 1111 155 1129 q 172 1072 155 1087 q 212 1057 188 1057 q 254 1067 225 1057 q 318 1091 284 1077 q 384 1118 352 1105 q 429 1137 415 1132 q 456 1159 445 1144 q 466 1191 466 1173 q 450 1230 466 1215 q 411 1245 434 1245 m 88 65 q 104 18 88 37 q 150 0 120 0 l 598 0 l 598 109 l 211 109 l 211 444 l 486 444 q 525 460 509 444 q 541 500 541 476 q 525 538 541 523 q 484 554 508 554 l 211 554 l 211 890 l 500 890 q 540 906 523 890 q 556 945 556 922 q 540 984 556 968 q 501 1000 523 1000 l 151 1000 q 120 1000 136 1000 q 90 1002 105 1000 l 88 65 "},"~":{"x_min":70,"x_max":568,"ha":638,"o":"m 70 405 l 139 405 q 150 456 140 430 q 191 483 161 483 q 254 471 223 483 q 316 445 284 459 q 378 418 347 430 q 443 406 409 406 q 499 420 476 406 q 538 456 523 434 q 561 507 554 479 q 568 565 568 536 l 568 580 l 499 580 q 486 528 497 554 q 444 502 475 502 q 383 514 412 502 q 321 541 353 526 q 259 568 290 555 q 194 580 228 580 q 138 566 161 580 q 99 529 114 552 q 76 478 83 506 q 70 420 70 450 l 70 405 "},"³":{"x_min":0,"x_max":0,"ha":0},"":{"x_min":59.734375,"x_max":702.828125,"ha":763,"o":"m 702 119 l 59 119 l 59 25 l 702 25 l 702 119 m 702 434 l 59 636 l 59 538 l 537 388 l 59 240 l 59 143 l 702 344 l 702 434 "},"¡":{"x_min":72.234375,"x_max":219.46875,"ha":292,"o":"m 72 950 q 92 896 72 918 q 144 875 112 875 q 197 895 176 875 q 219 947 219 915 q 197 999 219 977 q 145 1020 176 1020 q 94 1000 116 1020 q 72 950 72 980 m 88 38 q 104 -2 88 15 q 144 -19 120 -19 q 186 -1 168 -19 q 204 40 204 16 l 204 726 l 88 725 l 88 38 "},"[":{"x_min":72.234375,"x_max":287.515625,"ha":318,"o":"m 72 -4 q 86 -42 72 -25 q 123 -59 101 -59 l 236 -59 q 272 -44 256 -59 q 287 -8 287 -29 q 277 22 287 12 q 252 37 266 33 q 219 41 237 41 q 188 41 202 41 l 188 958 l 263 958 l 263 1059 l 123 1059 q 86 1042 101 1059 q 72 1004 72 1025 l 72 -4 "},"L":{"x_min":88.890625,"x_max":515.3125,"ha":529,"o":"m 88 67 q 103 18 88 40 q 150 -2 118 -2 l 515 -1 l 513 109 l 208 109 l 208 949 q 191 992 208 974 q 150 1011 175 1011 q 106 992 123 1011 q 88 948 88 973 l 88 67 "},"":{"x_min":86.125,"x_max":605.609375,"ha":685,"o":"m 497 398 q 438 493 476 458 q 333 527 400 527 q 231 502 277 527 q 154 436 186 477 q 104 345 122 395 q 86 243 86 294 q 98 147 86 194 q 136 63 111 100 q 202 4 162 26 q 297 -18 241 -18 q 427 26 373 -18 q 516 131 480 70 q 586 314 566 218 q 605 509 605 411 q 595 630 605 565 q 558 751 584 695 q 486 844 531 807 q 369 882 440 882 q 323 876 348 882 q 277 859 298 870 q 241 828 255 847 q 227 783 227 809 q 243 749 227 759 q 279 738 259 738 q 320 754 301 738 q 356 787 338 769 q 391 820 375 805 q 426 836 408 836 q 476 808 458 836 q 502 742 494 780 q 512 665 511 704 q 513 604 513 626 q 511 500 513 554 q 497 398 509 447 m 355 484 q 414 468 391 484 q 450 427 437 452 q 468 370 463 401 q 473 311 473 340 q 466 222 473 273 q 439 124 458 170 q 388 45 420 77 q 305 12 355 12 q 247 27 270 12 q 211 66 225 43 q 193 119 198 90 q 188 177 188 148 q 195 269 188 216 q 220 370 201 322 q 270 451 238 418 q 355 484 302 484 "},"\u001d":{"x_min":0,"x_max":0,"ha":0}," ":{"x_min":0,"x_max":0,"ha":354},"%":{"x_min":54.171875,"x_max":976.46875,"ha":1031,"o":"m 54 780 q 68 691 54 734 q 111 615 83 648 q 178 562 138 581 q 268 543 218 543 q 359 563 319 543 q 428 617 400 583 q 471 695 456 651 q 486 788 486 740 q 471 877 486 836 q 429 951 456 919 q 361 1002 401 983 q 272 1020 322 1020 q 180 1001 220 1020 q 111 949 140 982 q 68 872 83 916 q 54 780 54 829 m 252 -5 l 340 -43 q 368 25 347 -26 q 421 149 390 76 q 489 309 452 222 q 563 487 526 397 q 636 662 601 577 q 697 814 670 747 q 741 925 725 882 q 758 973 758 968 q 743 1008 758 993 q 708 1023 729 1023 q 682 1016 694 1023 q 665 994 670 1008 l 252 -5 m 541 212 q 556 120 541 163 q 598 45 570 77 q 666 -4 626 13 q 758 -23 707 -23 q 848 -4 808 -23 q 917 45 888 13 q 961 120 945 77 q 976 212 976 163 q 961 302 976 259 q 920 378 947 345 q 853 429 893 411 q 762 448 813 448 q 671 429 712 448 q 601 379 630 411 q 556 304 572 347 q 541 212 541 261 m 147 782 q 154 838 147 809 q 176 891 161 868 q 214 928 191 913 q 270 943 237 943 q 325 929 302 943 q 361 893 347 915 q 383 843 376 870 q 390 787 390 815 q 383 730 390 759 q 361 676 376 701 q 324 635 347 651 q 269 619 301 619 q 214 634 237 619 q 177 674 191 650 q 154 727 162 698 q 147 782 147 755 m 634 212 q 641 270 634 241 q 663 322 648 300 q 702 358 677 344 q 759 372 726 372 q 817 358 794 372 q 854 322 840 344 q 874 271 868 300 q 880 213 880 243 q 874 155 880 184 q 854 103 868 126 q 817 66 840 80 q 759 52 794 52 q 702 66 726 52 q 663 103 679 80 q 641 154 648 126 q 634 212 634 183 "},"P":{"x_min":88.890625,"x_max":720.890625,"ha":746,"o":"m 88 48 q 106 5 88 23 q 150 -13 125 -13 q 191 5 175 -13 q 208 48 208 23 l 208 375 l 398 375 q 524 397 465 375 q 627 461 583 420 q 695 559 670 502 q 720 686 720 616 q 715 748 720 720 q 673 853 702 806 q 602 932 644 900 q 508 982 561 965 q 397 1000 455 1000 q 243 997 320 1000 q 88 1002 165 994 l 88 48 m 211 483 l 211 892 l 393 892 q 473 876 436 892 q 538 833 511 860 q 583 767 566 805 q 600 687 600 730 q 584 608 600 645 q 539 542 568 570 q 473 498 511 514 q 394 483 436 483 l 211 483 "},"À":{"x_min":13.890625,"x_max":866.734375,"ha":858,"o":"m 583 1111 q 572 1143 583 1129 q 545 1165 562 1158 q 500 1184 530 1170 q 434 1211 469 1197 q 369 1235 400 1225 q 326 1245 338 1245 q 287 1231 302 1245 q 272 1193 272 1216 q 282 1159 272 1173 q 309 1138 293 1145 q 354 1120 323 1133 q 420 1093 386 1107 q 485 1068 455 1079 q 527 1058 515 1058 q 567 1073 551 1058 q 583 1111 583 1087 m 425 1011 q 370 988 390 1011 q 340 936 351 965 l 20 76 q 13 43 13 58 q 29 2 13 19 q 70 -13 45 -13 q 105 -2 90 -13 q 127 27 120 9 l 198 215 l 659 215 l 747 -13 l 866 20 l 518 936 q 485 991 504 972 q 425 1011 466 1011 m 231 320 l 429 866 l 625 320 l 231 320 "},"_":{"x_min":69.453125,"x_max":569.484375,"ha":639,"o":"m 69 -301 l 569 -301 l 569 -263 l 69 -263 l 69 -301 "},"ñ":{"x_min":88.890625,"x_max":672.28125,"ha":761,"o":"m 233 925 q 193 909 209 925 q 177 869 177 893 q 194 830 177 845 q 234 815 211 815 l 526 813 q 567 829 550 813 q 584 869 584 845 q 568 909 584 893 q 527 925 551 925 l 233 925 m 88 -1 l 205 -1 l 205 472 q 218 540 205 508 q 255 596 231 572 q 311 634 279 620 q 379 648 343 648 q 447 634 415 648 q 503 595 479 619 q 541 538 527 570 q 555 469 555 505 l 555 43 q 572 2 555 19 q 612 -15 588 -15 q 654 2 637 -15 q 672 44 672 19 l 672 470 q 653 583 672 531 q 599 672 634 634 q 513 730 563 709 q 401 751 463 751 q 290 726 344 751 q 205 654 237 701 q 205 687 205 669 q 200 720 205 705 q 184 744 195 734 q 150 754 172 754 q 106 736 125 754 q 88 694 88 719 l 88 -1 "},"+":{"x_min":63.890625,"x_max":712.5625,"ha":757,"o":"m 63 523 l 63 430 l 331 430 l 331 186 q 345 153 331 166 q 379 140 359 140 q 412 152 398 140 q 426 184 426 165 l 426 429 l 663 429 q 697 443 683 429 q 712 476 712 456 q 698 509 712 495 q 665 523 684 523 l 426 523 l 426 763 q 413 797 426 783 q 380 811 400 811 q 346 796 359 811 q 333 762 333 782 l 333 523 l 63 523 "},"‚":{"x_min":2.78125,"x_max":212.515625,"ha":258,"o":"m 151 122 q 120 113 134 122 q 98 90 105 105 q 75 44 91 76 q 43 -20 59 13 q 15 -85 27 -54 q 2 -128 2 -115 q 20 -169 2 -151 q 61 -188 37 -188 q 92 -178 77 -188 q 113 -154 106 -169 q 136 -110 120 -140 q 169 -45 152 -79 q 199 19 186 -11 q 212 62 212 49 q 193 104 212 87 q 151 122 175 122 "},"½":{"x_min":0,"x_max":0,"ha":0},"Æ":{"x_min":-13.890625,"x_max":1013.96875,"ha":1064,"o":"m -13 33 l 90 -13 l 209 213 l 534 213 l 534 63 q 552 18 534 36 q 597 0 569 0 l 958 0 q 997 15 980 0 q 1013 55 1013 31 q 997 94 1013 79 q 958 109 982 109 l 654 109 l 654 443 l 929 443 q 968 459 951 443 q 984 498 984 475 q 970 537 984 520 q 933 554 957 554 l 657 554 l 657 890 l 948 890 l 948 1000 l 522 1000 q 479 986 491 1000 q 452 947 466 973 l -13 33 m 261 318 l 534 859 l 534 318 l 261 318 "},"Ë":{"x_min":88.890625,"x_max":598.65625,"ha":621,"o":"m 104 1134 q 126 1082 104 1102 q 179 1062 148 1062 q 230 1084 209 1062 q 251 1136 251 1107 q 229 1186 251 1165 q 179 1208 208 1208 q 125 1187 147 1208 q 104 1134 104 1166 m 370 1134 q 391 1084 370 1107 q 441 1062 412 1062 q 495 1082 473 1062 q 516 1134 516 1102 q 495 1187 516 1166 q 441 1208 473 1208 q 391 1186 411 1208 q 370 1134 370 1163 m 88 65 q 104 18 88 37 q 150 0 120 0 l 598 0 l 598 109 l 211 109 l 211 444 l 486 444 q 525 460 509 444 q 541 500 541 476 q 525 538 541 523 q 484 554 508 554 l 211 554 l 211 890 l 500 890 q 540 906 523 890 q 556 945 556 922 q 540 984 556 968 q 501 1000 523 1000 l 151 1000 q 120 1000 136 1000 q 90 1002 105 1000 l 88 65 "},"'":{"x_min":69.453125,"x_max":184.734375,"ha":254,"o":"m 69 687 l 156 687 l 184 1000 l 97 1000 l 69 687 "},"Š":{"x_min":0,"x_max":0,"ha":0},"ª":{"x_min":76.390625,"x_max":536.15625,"ha":606,"o":"m 106 447 l 105 383 l 504 383 q 526 392 516 383 q 536 413 536 401 q 527 437 536 427 q 504 447 518 447 l 106 447 m 430 951 q 369 1000 405 983 q 293 1016 333 1016 q 200 994 240 1016 q 131 935 159 972 q 90 852 104 898 q 76 758 76 805 q 90 665 76 711 q 131 582 104 619 q 197 523 158 545 q 290 501 237 501 q 370 520 331 501 q 430 576 408 540 l 430 515 l 516 513 l 516 972 q 504 1002 516 988 q 475 1016 493 1016 q 436 996 441 1016 q 430 951 430 976 m 165 761 q 172 823 165 791 q 197 882 180 855 q 239 924 213 908 q 301 940 265 940 q 363 924 338 940 q 404 883 388 908 q 425 827 419 858 q 431 765 431 795 q 426 698 431 732 q 406 638 420 665 q 365 594 391 611 q 298 577 338 577 q 236 595 261 577 q 195 638 211 612 q 172 697 179 665 q 165 761 165 730 "},"Œ":{"x_min":51.390625,"x_max":1261.21875,"ha":1313,"o":"m 790 852 q 733 923 766 892 q 660 974 700 953 q 576 1004 620 994 q 486 1015 531 1015 q 291 969 373 1015 q 156 850 209 924 q 77 680 102 776 q 51 484 51 584 q 79 298 51 388 q 163 140 108 209 q 300 29 219 70 q 483 -12 380 -12 q 659 29 576 -12 q 788 153 741 72 l 788 48 q 805 12 788 24 q 844 0 822 0 l 1204 0 q 1244 15 1227 0 q 1261 54 1261 30 q 1245 92 1261 77 q 1205 108 1229 108 l 901 108 l 901 444 l 1176 444 q 1217 460 1200 444 q 1234 499 1234 476 q 1218 538 1234 523 q 1177 553 1201 553 l 902 553 l 902 890 l 1193 890 q 1232 905 1216 890 q 1248 944 1248 920 q 1232 983 1248 967 q 1191 999 1215 999 l 848 999 q 805 984 818 999 q 789 946 793 969 q 788 897 786 923 q 790 852 790 871 m 179 498 q 195 642 179 570 q 250 771 212 713 q 345 865 287 829 q 487 901 404 901 q 625 864 568 901 q 718 770 682 827 q 770 641 754 712 q 787 500 787 569 q 771 354 787 426 q 719 227 755 283 q 624 136 683 170 q 480 101 565 101 q 341 136 398 101 q 248 229 284 172 q 195 356 212 286 q 179 498 179 427 "},"ð":{"x_min":0,"x_max":0,"ha":0},"T":{"x_min":22.21875,"x_max":613.9375,"ha":611,"o":"m 22 1000 l 22 890 l 243 890 l 243 50 q 261 7 243 26 q 304 -11 279 -11 q 345 7 329 -11 q 362 50 362 25 l 362 890 l 556 890 q 596 905 579 890 q 613 944 613 921 q 597 984 613 968 q 558 1000 581 1000 l 22 1000 "},"š":{"x_min":0,"x_max":0,"ha":0},"Þ":{"x_min":0,"x_max":0,"ha":0},"j":{"x_min":88.890625,"x_max":205.578125,"ha":294,"o":"m 88 -294 l 205 -294 l 205 694 q 188 736 205 718 q 145 755 170 755 q 104 736 119 755 q 88 693 88 718 l 88 -294 m 97 916 q 112 882 97 897 q 147 868 127 868 q 182 882 168 868 q 197 918 197 897 q 181 952 197 938 q 147 966 166 966 q 111 952 125 966 q 97 916 97 937 "},"1":{"x_min":152.796875,"x_max":455.59375,"ha":757,"o":"m 208 1000 q 168 984 184 1000 q 152 944 152 968 q 168 906 152 921 q 206 892 184 892 l 334 892 l 334 -1 l 455 0 l 455 937 q 439 980 455 961 q 398 1000 423 1000 l 208 1000 "},"›":{"x_min":55.5625,"x_max":295.859375,"ha":350,"o":"m 295 364 q 287 389 295 375 q 273 414 279 404 l 155 618 q 134 642 147 632 q 104 653 120 653 q 70 639 84 653 q 55 605 55 625 q 59 584 55 594 q 68 565 62 575 l 188 368 l 66 169 q 55 132 55 151 q 68 96 55 111 q 101 82 80 82 q 132 91 118 82 q 155 115 147 101 l 279 325 q 290 343 284 333 q 295 364 295 352 "},"ä":{"x_min":50.390625,"x_max":699,"ha":788,"o":"m 195 908 q 216 854 195 876 q 269 832 237 832 q 322 853 301 832 q 343 905 343 875 q 322 958 343 936 q 269 980 301 980 q 218 959 240 980 q 195 908 195 938 m 459 907 q 480 853 459 875 q 533 832 501 832 q 586 853 565 832 q 607 905 607 875 q 585 959 607 937 q 533 980 563 980 q 481 959 502 980 q 459 907 459 937 m 582 654 q 488 727 543 702 q 372 752 433 752 q 235 719 294 752 q 134 632 175 686 q 71 511 93 579 q 50 372 50 443 q 71 231 50 300 q 132 108 92 162 q 233 20 172 54 q 372 -12 293 -12 q 492 15 437 -12 q 581 101 547 44 l 581 -5 l 699 -5 l 699 694 q 683 734 699 716 q 643 752 667 752 q 605 743 618 752 q 588 720 593 734 q 583 689 583 707 q 582 654 582 672 m 175 373 q 186 471 175 422 q 223 561 198 520 q 288 626 248 601 q 386 651 329 651 q 482 627 444 651 q 543 564 520 602 q 575 477 566 526 q 584 381 584 429 q 576 277 584 329 q 545 183 568 225 q 481 115 522 141 q 379 88 441 88 q 282 115 322 88 q 219 182 243 141 q 185 274 195 223 q 175 373 175 325 "},"¹":{"x_min":0,"x_max":0,"ha":0},"<":{"x_min":69.453125,"x_max":654.21875,"ha":724,"o":"m 69 500 l 654 169 l 654 267 l 233 500 l 654 732 l 654 831 l 69 500 "},"£":{"x_min":40.28125,"x_max":772.28125,"ha":828,"o":"m 211 555 l 98 555 q 57 539 75 555 q 40 500 40 523 q 57 461 40 476 q 98 445 75 445 l 243 445 q 252 369 252 411 q 227 257 252 306 q 172 170 202 208 q 118 104 143 131 q 93 58 93 77 q 111 17 93 34 q 152 0 129 0 l 772 0 l 770 111 l 254 111 q 302 163 280 133 q 341 227 325 193 q 366 297 356 261 q 375 368 375 333 q 371 407 375 388 q 365 447 368 426 l 555 447 l 555 556 l 337 556 q 313 602 326 577 q 290 651 301 626 q 273 701 280 676 q 266 751 266 726 q 281 818 266 788 q 320 867 295 847 q 376 897 344 887 q 443 908 408 908 q 633 794 569 908 q 647 762 641 779 q 662 733 652 745 q 705 711 677 711 q 750 729 733 711 q 766 776 766 748 q 743 852 766 813 q 695 918 719 890 q 579 998 648 972 q 440 1025 511 1025 q 329 1008 383 1025 q 234 959 276 991 q 168 880 193 927 q 143 772 143 833 q 163 659 143 711 q 211 555 183 608 "},"t":{"x_min":4.5,"x_max":353.078125,"ha":344,"o":"m 117 741 q 82 742 101 741 q 45 738 62 743 q 16 723 28 734 q 4 688 4 712 q 17 654 4 665 q 46 639 29 643 q 83 636 64 636 q 118 637 103 637 l 118 0 l 235 0 l 235 637 q 269 636 248 637 q 308 639 290 636 q 339 654 326 643 q 353 688 353 665 q 339 725 353 713 q 307 739 326 736 q 268 742 289 743 q 233 741 247 741 l 235 908 q 217 952 235 932 q 175 972 200 972 q 132 952 148 972 q 117 908 117 932 l 117 741 "},"¬":{"x_min":69.453125,"x_max":719.5,"ha":789,"o":"m 69 500 l 644 500 l 644 300 l 719 300 l 719 587 l 69 587 l 69 500 "},"ù":{"x_min":89,"x_max":675.078125,"ha":764,"o":"m 536 852 q 525 885 536 870 q 498 907 515 900 q 452 925 483 912 q 387 952 422 938 q 322 977 352 966 q 279 987 291 987 q 240 972 255 987 q 225 934 225 958 q 235 901 225 915 q 262 880 245 887 q 307 861 276 875 q 373 834 338 848 q 438 810 408 820 q 480 800 468 800 q 520 814 504 800 q 536 852 536 829 m 89 274 q 165 59 89 132 q 382 -13 241 -13 q 598 59 522 -13 q 675 274 675 132 l 675 691 q 658 734 675 716 q 616 752 641 752 q 575 734 593 752 q 558 692 558 716 l 558 277 q 516 140 558 189 q 382 91 473 91 q 248 140 290 91 q 207 277 207 189 l 207 725 l 89 724 l 89 274 "},"W":{"x_min":20.828125,"x_max":1127.875,"ha":1157,"o":"m 20 988 l 186 60 q 217 5 193 24 q 277 -13 241 -13 q 334 2 309 -13 q 366 49 358 18 l 577 809 l 790 49 q 822 2 798 18 q 879 -13 847 -13 q 938 5 915 -13 q 969 60 962 24 l 1126 931 q 1127 949 1127 937 q 1110 994 1127 977 q 1065 1011 1093 1011 q 1025 993 1040 1011 q 1007 952 1011 976 l 873 141 l 638 962 l 518 962 l 283 141 l 138 1009 l 20 988 "},"ï":{"x_min":-73.609375,"x_max":338.921875,"ha":264,"o":"m -73 876 q -51 824 -73 844 q 1 804 -29 804 q 52 826 31 804 q 73 877 73 848 q 52 928 73 907 q 1 950 30 950 q -52 929 -30 950 q -73 876 -73 908 m 193 876 q 213 826 193 848 q 263 804 234 804 q 317 824 295 804 q 338 876 338 844 q 317 929 338 908 q 263 950 295 950 q 213 927 233 950 q 193 876 193 905 m 90 -1 l 206 -1 l 206 694 q 190 734 206 716 q 151 752 175 752 q 108 736 126 752 q 90 694 90 720 l 90 -1 "},">":{"x_min":69.453125,"x_max":654.21875,"ha":724,"o":"m 69 169 l 654 500 l 69 831 l 69 732 l 490 500 l 69 267 l 69 169 "},"v":{"x_min":-1.390625,"x_max":590.328125,"ha":601,"o":"m 109 750 l -1 714 l 240 32 q 263 -1 248 9 q 302 -13 277 -13 q 340 0 325 -13 q 362 32 355 13 q 387 104 368 50 q 432 227 406 157 q 486 375 458 298 q 536 521 513 453 q 575 635 559 588 q 590 691 590 682 q 572 732 590 714 q 530 750 554 750 q 496 739 509 750 q 476 707 483 727 l 302 185 l 109 750 "},"û":{"x_min":89,"x_max":675.078125,"ha":764,"o":"m 380 975 q 365 971 373 975 q 350 965 356 968 l 202 907 q 166 854 166 893 q 182 815 166 830 q 220 800 198 800 q 255 807 233 800 q 302 825 277 815 q 347 845 326 834 q 381 859 369 855 q 416 844 394 854 q 460 825 437 834 q 504 807 483 815 q 538 800 526 800 q 579 816 562 800 q 597 857 597 833 q 562 909 597 895 l 412 965 q 396 971 405 968 q 380 975 387 975 m 89 274 q 165 59 89 132 q 382 -13 241 -13 q 598 59 522 -13 q 675 274 675 132 l 675 691 q 658 734 675 716 q 616 752 641 752 q 575 734 593 752 q 558 692 558 716 l 558 277 q 516 140 558 189 q 382 91 473 91 q 248 140 290 91 q 207 277 207 189 l 207 725 l 89 724 l 89 274 "},"Ò":{"x_min":51,"x_max":923.296875,"ha":975,"o":"m 51 500 q 78 309 51 402 q 161 146 106 217 q 298 30 216 74 q 487 -13 380 -13 q 675 30 594 -13 q 812 145 756 73 q 895 309 867 217 q 923 499 923 400 q 895 689 923 596 q 812 853 867 781 q 676 968 758 924 q 488 1012 595 1012 q 299 969 381 1012 q 162 855 217 925 q 78 691 106 784 q 51 500 51 599 m 641 1111 q 631 1143 641 1129 q 604 1165 620 1158 q 558 1184 588 1170 q 493 1211 527 1197 q 427 1235 458 1225 q 384 1245 397 1245 q 345 1231 361 1245 q 330 1193 330 1216 q 341 1159 330 1173 q 368 1138 351 1145 q 413 1120 381 1133 q 479 1093 444 1107 q 543 1068 513 1079 q 586 1058 573 1058 q 625 1073 609 1058 q 641 1111 641 1087 m 183 500 q 198 641 183 569 q 250 772 214 713 q 343 869 285 832 q 483 907 401 907 q 629 869 570 907 q 725 772 688 832 q 777 637 762 712 q 792 487 792 562 q 775 344 792 415 q 720 217 758 273 q 624 126 683 161 q 483 91 566 91 q 343 129 401 91 q 250 225 285 166 q 198 357 214 284 q 183 500 183 430 "},"\n":{"x_min":69.453125,"x_max":563.9375,"ha":846,"o":"m 69 297 q 88 274 77 285 q 109 255 98 263 l 200 342 q 316 302 251 302 q 433 341 381 302 l 519 254 q 541 274 530 263 q 562 295 552 284 l 475 383 q 513 501 513 437 q 476 618 513 565 l 563 701 q 520 746 543 729 l 434 658 q 318 697 383 697 q 198 658 252 697 l 109 744 q 88 723 98 733 q 70 700 79 712 l 156 616 q 118 501 118 565 q 158 384 118 436 l 69 297 m 181 500 q 192 552 181 527 q 221 594 202 576 q 263 622 240 612 q 315 633 287 633 q 367 622 343 633 q 410 594 391 612 q 439 552 429 576 q 450 500 450 527 q 439 447 450 472 q 410 405 429 423 q 367 377 391 387 q 315 366 343 366 q 263 377 287 366 q 221 405 240 387 q 192 447 202 423 q 181 500 181 472 "},"":{"x_min":69.453125,"x_max":997.296875,"ha":1061,"o":"m 652 125 l 652 206 q 788 248 725 220 q 897 320 851 276 q 970 426 944 365 q 997 566 997 487 q 957 734 997 663 q 851 850 916 805 q 702 916 786 894 q 533 937 619 937 q 363 916 447 937 q 215 850 280 894 q 109 734 150 805 q 69 566 69 663 q 95 426 69 487 q 168 320 122 365 q 278 247 215 276 q 413 206 341 219 l 413 125 l 243 125 q 185 130 208 125 q 149 150 162 136 q 129 186 136 163 q 120 244 122 209 l 88 244 l 88 0 l 466 0 l 466 250 q 361 291 405 262 q 289 362 318 320 q 247 456 261 404 q 233 566 233 508 q 253 695 233 636 q 311 796 273 754 q 405 863 350 838 q 533 887 461 887 q 661 863 605 887 q 756 796 718 838 q 813 695 794 754 q 833 566 833 636 q 819 456 833 509 q 776 362 805 404 q 703 290 747 320 q 600 250 659 261 l 600 0 l 977 0 l 977 244 l 945 244 q 936 186 943 209 q 917 150 930 163 q 881 130 904 136 q 823 125 858 125 l 652 125 "},"&":{"x_min":60,"x_max":936.453125,"ha":947,"o":"m 290 615 q 202 556 244 591 q 128 478 160 522 q 78 383 97 434 q 60 279 60 333 q 85 155 60 210 q 155 60 111 99 q 256 -1 198 20 q 379 -24 314 -24 q 556 21 472 -24 q 694 141 640 66 l 850 -43 l 936 30 l 768 232 q 800 274 778 245 q 845 335 822 302 q 885 400 868 368 q 901 452 901 432 q 887 493 901 476 q 850 507 873 509 l 843 507 q 812 494 826 507 q 787 465 798 482 q 765 430 775 448 q 748 398 755 411 q 722 357 736 377 q 694 318 708 337 l 466 590 q 532 634 500 611 q 591 687 565 658 q 632 752 616 716 q 648 832 648 787 q 628 917 648 880 q 576 976 608 953 q 501 1012 543 1000 q 415 1024 458 1024 q 329 1010 371 1024 q 255 972 287 997 q 202 910 222 947 q 182 825 182 873 q 191 766 182 796 q 216 710 201 737 q 251 659 232 683 q 290 615 271 636 m 395 669 q 368 704 384 686 q 336 742 351 722 q 311 783 322 762 q 301 827 301 804 q 311 868 301 851 q 339 897 322 886 q 377 913 356 908 q 419 919 398 919 q 495 892 461 919 q 530 820 530 865 q 517 770 530 793 q 484 729 504 747 q 440 696 463 711 q 395 669 416 682 m 360 533 l 618 227 q 573 173 600 198 q 516 129 547 148 q 452 100 486 111 q 385 89 418 89 q 305 104 341 89 q 241 148 268 120 q 200 214 215 176 q 185 293 185 251 q 199 370 185 333 q 237 438 214 407 q 293 493 261 469 q 360 533 325 518 "},"Ð":{"x_min":0,"x_max":0,"ha":0},"I":{"x_min":88.890625,"x_max":208.34375,"ha":297,"o":"m 88 0 l 208 0 l 208 950 q 191 993 208 975 q 150 1011 175 1011 q 106 993 125 1011 q 88 950 88 975 l 88 0 m 97 1097 q 112 1063 97 1077 q 147 1048 127 1048 q 182 1063 168 1048 q 197 1098 197 1077 q 181 1133 197 1119 q 147 1147 166 1147 q 111 1132 125 1147 q 97 1097 97 1118 "},"G":{"x_min":51.390625,"x_max":915.34375,"ha":956,"o":"m 793 459 q 777 327 793 393 q 728 210 762 262 q 641 126 694 158 q 511 94 587 94 q 359 127 422 94 q 256 217 297 161 q 197 347 216 273 q 179 500 179 420 q 197 646 179 573 q 256 777 216 719 q 356 870 295 834 q 501 907 418 907 q 579 898 547 907 q 641 875 612 890 q 697 841 669 861 q 759 800 725 822 l 829 888 q 686 974 762 937 q 525 1011 609 1011 q 321 970 409 1011 q 173 860 233 930 q 82 695 113 790 q 51 491 51 601 q 81 292 51 384 q 170 131 112 200 q 315 25 229 63 q 513 -13 401 -13 q 691 25 615 -13 q 816 128 766 63 q 891 278 866 193 q 915 456 915 363 q 897 541 915 512 q 819 570 879 570 l 618 570 q 577 554 594 570 q 559 513 559 537 q 576 475 559 490 q 616 459 593 459 l 793 459 "},"`":{"x_min":-4.171875,"x_max":311.140625,"ha":306,"o":"m 311 890 l 73 983 q 50 988 62 988 q 11 973 26 988 q -4 935 -4 958 q 6 901 -4 915 q 33 881 16 888 l 272 788 l 311 890 "},"·":{"x_min":75,"x_max":222.234375,"ha":297,"o":"m 75 363 q 97 313 75 334 q 148 291 119 291 q 200 313 179 291 q 222 363 222 334 q 200 416 222 395 q 147 437 177 437 q 95 415 116 437 q 75 363 75 393 "},"r":{"x_min":89,"x_max":411.171875,"ha":379,"o":"m 89 -2 l 207 -1 l 207 381 q 222 496 207 452 q 259 566 237 540 q 309 607 282 593 q 358 631 336 620 q 395 654 380 641 q 411 690 411 666 q 391 736 411 718 q 343 754 370 754 q 297 742 319 754 q 256 711 275 730 q 225 670 238 693 q 204 627 211 648 q 206 663 205 645 q 208 698 208 680 q 188 736 208 722 q 148 750 169 750 q 107 733 125 750 q 89 691 89 716 l 89 -2 "},"¿":{"x_min":33.34375,"x_max":598.65625,"ha":645,"o":"m 229 951 q 249 899 229 921 q 301 877 269 877 q 353 898 331 877 q 375 949 375 919 q 353 1000 375 980 q 301 1021 331 1021 q 251 1000 273 1021 q 229 951 229 980 m 243 726 l 243 455 q 259 425 243 434 q 301 408 276 415 q 355 393 326 401 q 409 369 384 386 q 451 322 434 352 q 468 241 468 291 q 422 132 468 172 q 309 93 376 93 q 231 104 261 93 q 185 134 202 116 q 159 172 168 151 q 142 210 150 193 q 123 239 134 227 q 91 251 112 251 q 48 231 63 251 q 33 184 33 211 q 48 124 33 152 q 83 72 63 95 q 181 1 123 23 q 302 -20 240 -20 q 415 -4 361 -20 q 509 45 469 12 q 574 127 550 79 q 598 238 598 176 q 580 338 598 293 q 530 420 562 384 q 454 478 498 455 q 358 509 411 501 l 358 726 l 243 726 "},"ý":{"x_min":0,"x_max":0,"ha":0},"x":{"x_min":13.890625,"x_max":647.28125,"ha":661,"o":"m 258 394 l 27 86 q 13 44 13 68 q 30 4 13 20 q 70 -11 47 -11 q 101 -1 87 -11 q 125 20 115 7 l 330 305 l 536 20 q 559 -1 545 7 q 590 -11 573 -11 q 630 4 613 -11 q 647 44 647 20 q 633 86 647 68 l 402 394 l 604 657 q 618 697 618 675 q 601 736 618 719 q 561 753 584 753 q 530 743 544 753 q 506 719 516 733 l 330 482 l 129 751 l 31 689 l 258 394 "},"è":{"x_min":51.390625,"x_max":705.609375,"ha":747,"o":"m 527 852 q 517 885 527 870 q 490 907 506 900 q 444 925 475 912 q 379 952 413 938 q 313 977 344 966 q 270 987 283 987 q 231 972 247 987 q 216 934 216 958 q 227 901 216 915 q 254 880 237 887 q 299 861 268 875 q 365 834 330 848 q 429 810 400 820 q 472 800 459 800 q 511 814 495 800 q 527 852 527 829 m 181 323 l 632 323 q 687 336 669 323 q 705 388 705 348 q 683 522 705 456 q 620 638 661 587 q 520 720 579 688 q 387 751 461 751 q 247 719 309 751 q 142 634 186 687 q 75 513 98 581 q 51 372 51 444 q 74 224 51 294 q 141 101 97 154 q 250 17 186 48 q 397 -13 313 -13 q 491 -2 448 -13 q 580 29 533 9 l 554 122 q 479 102 518 111 q 401 93 440 93 q 313 111 354 93 q 244 161 273 130 q 198 235 215 193 q 181 323 181 277 m 179 415 q 198 501 184 458 q 236 577 212 544 q 295 631 259 611 q 384 652 331 652 q 466 631 430 652 q 527 575 502 609 q 566 499 552 541 q 581 415 580 456 l 179 415 "},"º":{"x_min":75,"x_max":523.65625,"ha":593,"o":"m 104 448 l 104 383 l 490 383 q 513 393 504 383 q 523 416 523 402 q 513 439 523 430 q 490 448 504 448 l 104 448 m 75 761 q 90 665 75 712 q 134 581 105 618 q 204 522 162 544 q 298 500 245 500 q 391 521 350 500 q 462 579 433 543 q 506 660 491 615 q 522 754 522 705 q 507 850 522 802 q 464 934 493 897 q 395 993 436 970 q 300 1016 354 1016 q 205 995 247 1016 q 134 938 163 973 q 90 856 105 902 q 75 761 75 809 m 166 759 q 173 820 166 788 q 196 879 180 852 q 236 922 212 905 q 295 938 261 938 q 359 921 333 938 q 401 876 386 904 q 423 815 416 848 q 430 750 430 782 q 422 688 430 719 q 398 633 415 658 q 356 593 381 608 q 295 577 330 577 q 235 595 259 577 q 195 638 211 612 q 173 697 180 665 q 166 759 166 730 "},"Ø":{"x_min":34.71875,"x_max":940.359375,"ha":976,"o":"m 777 895 q 642 984 718 954 q 483 1013 566 1013 q 295 970 376 1013 q 161 854 215 926 q 79 689 106 782 q 51 500 51 597 q 74 322 51 405 q 152 161 97 238 l 34 18 l 93 -37 l 206 100 q 332 14 261 43 q 483 -13 404 -13 q 671 29 588 -13 q 809 143 754 72 q 894 305 865 213 q 923 495 923 397 q 902 672 923 587 q 832 834 880 757 q 858 863 840 844 q 894 905 876 883 q 926 948 912 927 q 940 980 940 968 q 929 1009 940 997 q 901 1020 918 1020 q 871 1004 888 1020 q 836 968 854 988 q 802 926 818 947 q 777 895 786 905 m 701 807 l 236 256 q 193 372 205 315 q 181 494 181 429 q 197 636 181 563 q 249 768 213 709 q 341 866 284 827 q 481 904 398 904 q 602 879 544 904 q 701 807 659 855 m 281 186 l 747 737 q 782 615 772 676 q 793 487 793 554 q 776 347 793 418 q 723 222 759 277 q 630 131 687 166 q 493 97 573 97 q 377 119 431 97 q 281 186 323 141 "},"÷":{"x_min":59.734375,"x_max":702.828125,"ha":858,"o":"m 381 219 q 325 196 348 219 q 302 140 302 173 q 325 83 302 106 q 381 61 348 61 q 436 84 413 61 q 459 140 459 108 q 438 196 459 174 q 381 219 416 219 m 702 375 l 59 375 l 59 280 l 702 280 l 702 375 m 381 593 q 325 570 348 593 q 302 514 302 547 q 325 457 302 480 q 381 435 348 435 q 436 458 413 435 q 459 514 459 482 q 436 569 459 545 q 381 593 413 593 "},"\u001f":{"x_min":0,"x_max":0,"ha":0},"h":{"x_min":89,"x_max":672.3125,"ha":761,"o":"m 89 -2 l 205 -2 l 205 472 q 219 540 205 508 q 257 596 233 572 q 312 634 280 620 q 380 648 344 648 q 448 634 416 648 q 504 595 480 619 q 541 538 527 570 q 555 469 555 505 l 555 43 q 572 2 555 19 q 612 -15 588 -15 q 654 2 637 -15 q 672 44 672 19 l 672 469 q 653 580 672 529 q 600 670 634 632 q 516 729 565 708 q 404 751 466 751 q 293 726 345 751 q 207 654 240 701 l 207 1019 q 190 1061 207 1043 q 148 1079 173 1079 q 106 1061 123 1079 q 89 1018 89 1043 l 89 -2 "},"\u0005":{"x_min":-6.9375,"x_max":440.3125,"ha":440,"o":"m -6 911 q 19 860 -6 882 q 81 823 45 838 q 156 801 118 808 q 218 795 194 795 q 275 802 237 795 q 349 824 312 810 q 413 857 386 837 q 440 902 440 878 q 427 946 440 925 q 391 968 415 968 q 371 958 386 968 q 334 937 356 948 q 281 916 311 926 q 219 906 252 906 q 154 916 184 906 q 101 938 125 926 q 62 959 77 949 q 41 970 47 970 q 6 950 20 970 q -6 911 -6 931 "},"\b":{"x_min":54.171875,"x_max":281.96875,"ha":336,"o":"m 54 912 q 63 869 54 888 q 88 835 72 850 q 124 812 104 820 q 166 804 144 804 q 247 834 212 804 q 281 912 281 865 q 272 955 281 936 q 247 989 262 975 q 211 1012 231 1004 q 168 1020 190 1020 q 88 990 122 1020 q 54 912 54 959 m 116 912 q 131 947 116 933 q 168 962 147 962 q 202 947 187 962 q 218 911 218 932 q 203 877 218 891 q 169 862 188 862 q 131 875 147 862 q 116 912 116 888 "},".":{"x_min":51.390625,"x_max":198.625,"ha":250,"o":"m 51 54 q 73 3 51 25 q 125 -18 95 -18 q 177 3 155 -18 q 198 54 198 25 q 176 106 198 86 q 123 127 154 127 q 72 105 93 127 q 51 54 51 83 "},";":{"x_min":22.21875,"x_max":250.015625,"ha":297,"o":"m 94 529 q 115 477 94 497 q 169 457 137 457 q 220 479 200 457 q 241 530 241 501 q 220 580 241 560 q 169 601 198 601 q 115 580 137 601 q 94 529 94 560 m 141 136 l 27 -101 q 22 -127 22 -112 q 39 -169 22 -151 q 80 -187 56 -187 q 111 -178 97 -187 q 133 -154 126 -169 l 250 83 l 141 136 "},"f":{"x_min":0,"x_max":384.75,"ha":351,"o":"m 115 741 q 80 742 100 741 q 43 739 61 743 q 12 725 25 736 q 0 691 0 715 q 11 654 0 666 q 40 638 23 643 q 78 636 58 634 q 116 637 98 637 l 116 -295 l 234 -295 l 234 637 q 272 635 248 637 q 320 636 297 633 q 359 651 343 640 q 376 688 376 662 q 359 727 376 715 q 320 741 343 738 q 273 743 297 744 q 234 741 250 741 l 234 933 q 252 966 234 957 q 288 975 269 975 q 319 975 302 975 q 351 979 337 975 q 375 994 365 983 q 384 1027 384 1005 q 361 1068 384 1055 q 315 1082 338 1082 l 262 1082 q 154 1037 194 1082 q 115 926 115 993 l 115 741 "},"“":{"x_min":2.78125,"x_max":444.484375,"ha":472,"o":"m 127 1037 l 8 787 q 2 761 2 776 q 20 719 2 737 q 61 701 37 701 q 92 710 77 701 q 113 734 106 719 l 236 984 l 127 1037 m 336 1038 l 216 787 q 211 760 211 776 q 228 719 211 737 q 269 701 245 701 q 300 710 286 701 q 322 734 315 719 l 444 985 l 336 1038 "},"A":{"x_min":13.890625,"x_max":866.734375,"ha":858,"o":"m 425 1011 q 370 988 390 1011 q 340 936 351 965 l 20 76 q 13 43 13 58 q 29 2 13 19 q 70 -13 45 -13 q 105 -2 90 -13 q 127 27 120 9 l 198 215 l 659 215 l 747 -13 l 866 20 l 518 936 q 485 991 504 972 q 425 1011 466 1011 m 231 320 l 429 866 l 625 320 l 231 320 "},"6":{"x_min":79.171875,"x_max":676.4375,"ha":756,"o":"m 268 605 q 333 714 302 669 q 396 798 363 759 q 466 876 429 837 q 554 965 504 915 q 534 975 548 968 q 506 993 520 983 q 479 1011 491 1002 q 463 1023 466 1019 q 400 965 434 993 q 338 905 366 937 q 240 782 287 847 q 157 645 193 716 q 100 497 122 573 q 79 340 79 420 q 97 209 79 273 q 153 95 116 145 q 245 13 190 44 q 373 -16 300 -16 q 500 11 444 -16 q 595 86 556 38 q 655 194 634 133 q 676 322 676 255 q 658 442 676 384 q 605 544 640 500 q 519 615 570 588 q 400 641 468 641 q 268 605 329 641 m 375 97 q 295 118 327 97 q 242 171 262 138 q 213 244 222 204 q 204 325 204 284 q 213 404 204 365 q 242 473 222 443 q 295 522 262 504 q 375 541 327 541 q 455 521 422 541 q 510 468 488 501 q 541 395 531 436 q 551 313 551 355 q 541 233 551 272 q 509 164 530 194 q 454 115 487 134 q 375 97 420 97 "},"‘":{"x_min":2.78125,"x_max":236.125,"ha":268,"o":"m 162 1025 q 130 1016 145 1025 q 108 991 115 1007 q 85 946 101 977 q 53 881 69 915 q 25 817 37 847 q 12 775 12 787 q 30 732 12 750 q 72 713 48 713 q 102 722 88 713 q 123 747 116 732 q 146 792 130 761 q 179 857 162 823 q 209 921 195 891 q 222 963 222 951 q 204 1007 222 988 q 162 1025 186 1025 m 127 1038 l 8 787 q 2 760 2 776 q 20 719 2 737 q 61 701 37 701 q 92 710 77 701 q 113 734 106 719 l 236 985 l 127 1038 "},"O":{"x_min":51,"x_max":923.296875,"ha":975,"o":"m 51 500 q 78 309 51 401 q 161 145 106 217 q 298 30 216 74 q 487 -13 380 -13 q 675 30 594 -13 q 812 145 756 73 q 895 308 867 217 q 923 499 923 400 q 895 688 923 596 q 812 852 867 780 q 676 967 758 923 q 488 1011 595 1011 q 299 967 381 1011 q 162 854 217 924 q 78 691 106 783 q 51 500 51 598 m 183 500 q 198 641 183 569 q 250 772 214 713 q 343 869 285 832 q 483 907 401 907 q 629 869 570 907 q 725 772 688 832 q 777 637 762 712 q 792 487 792 562 q 775 344 792 415 q 720 217 758 273 q 624 126 683 161 q 483 91 566 91 q 343 129 401 91 q 250 225 285 166 q 198 357 214 284 q 183 500 183 430 "},"n":{"x_min":88.890625,"x_max":672.28125,"ha":761,"o":"m 88 -2 l 205 -2 l 205 471 q 218 539 205 507 q 255 595 231 571 q 311 633 279 619 q 379 647 343 647 q 447 632 415 647 q 503 593 479 618 q 541 537 527 569 q 555 468 555 504 l 555 41 q 572 0 555 18 q 612 -16 588 -16 q 654 0 637 -16 q 672 43 672 18 l 672 469 q 653 582 672 530 q 599 671 634 633 q 513 729 563 708 q 401 750 463 750 q 290 725 344 750 q 205 652 237 700 q 205 686 205 668 q 200 718 205 704 q 184 743 195 733 q 150 753 172 753 q 106 735 125 753 q 88 693 88 718 l 88 -2 "},"3":{"x_min":76.5625,"x_max":679,"ha":756,"o":"m 512 537 q 594 633 566 575 q 622 758 622 691 q 603 857 622 811 q 551 938 584 904 q 472 993 518 973 q 372 1014 426 1014 q 218 966 281 1014 q 127 832 154 918 q 129 832 127 833 q 130 832 130 832 q 143 827 137 829 q 155 822 148 825 q 171 814 159 819 q 195 802 183 808 q 219 792 208 797 q 233 787 230 787 l 234 787 q 279 870 245 837 q 366 903 312 903 q 420 889 395 903 q 463 855 445 876 q 490 807 480 834 q 500 752 500 780 q 486 663 500 696 q 450 613 472 630 q 404 589 429 595 q 359 575 380 582 q 323 559 337 569 q 309 526 309 550 q 316 497 309 511 q 347 472 327 476 q 387 465 366 468 q 508 410 463 454 q 553 286 553 366 q 538 210 553 244 q 498 152 523 176 q 439 113 473 127 q 364 100 404 100 q 291 113 319 100 q 243 147 262 126 q 211 190 223 168 q 189 234 200 213 q 165 268 177 255 q 133 281 152 281 q 93 263 109 281 q 76 220 76 244 q 80 190 76 205 q 91 161 84 176 q 136 88 108 120 q 199 32 164 55 q 275 -2 234 9 q 361 -14 316 -14 q 484 8 426 -14 q 585 73 541 31 q 654 171 629 115 q 679 294 679 227 q 633 441 679 374 q 512 537 587 508 "},"9":{"x_min":79,"x_max":677,"ha":756,"o":"m 487 391 q 412 265 455 324 q 318 152 368 205 q 303 138 316 151 q 274 108 290 124 q 245 77 258 91 q 233 59 233 63 l 311 -14 q 325 -3 314 -14 q 350 20 337 6 q 374 44 364 33 q 387 58 384 55 q 496 187 444 117 q 589 332 549 256 q 653 490 629 408 q 677 656 677 572 q 658 787 677 723 q 602 902 639 852 q 510 983 565 952 q 380 1015 454 1015 q 250 985 307 1015 q 156 908 194 956 q 98 797 117 860 q 79 666 79 734 q 97 549 79 605 q 152 449 116 492 q 238 380 187 406 q 354 354 289 354 q 487 391 426 354 m 380 455 q 299 475 333 455 q 245 527 266 495 q 213 600 223 559 q 204 682 204 641 q 214 763 204 724 q 246 832 224 802 q 301 882 267 863 q 380 901 334 901 q 457 881 425 901 q 511 830 490 862 q 542 760 532 799 q 553 682 553 721 q 544 600 553 641 q 516 527 536 559 q 462 475 495 495 q 380 455 429 455 "},"l":{"x_min":88.890625,"x_max":205.578125,"ha":294,"o":"m 88 -2 l 205 -1 l 205 1022 q 188 1065 205 1047 q 147 1083 172 1083 q 105 1065 122 1083 q 88 1022 88 1047 l 88 -2 "},"¤":{"x_min":-5.5625,"x_max":862.5625,"ha":846,"o":"m 27 463 l -5 371 l 118 371 q 168 220 133 290 q 259 97 204 150 q 387 15 313 45 q 552 -14 461 -14 q 682 0 615 -14 q 802 51 750 15 q 842 82 822 65 q 862 128 862 100 q 847 169 862 151 q 808 187 832 187 q 772 174 793 187 q 721 143 751 160 q 650 112 691 126 q 555 99 609 99 q 438 120 490 99 q 350 179 387 142 q 286 266 312 216 q 248 371 261 315 l 586 371 q 624 384 605 371 q 650 417 643 397 q 647 449 657 436 q 618 463 637 463 l 234 463 q 233 481 233 472 q 233 500 233 490 q 233 522 233 511 q 234 545 233 533 l 659 545 l 691 638 l 250 638 q 288 738 263 690 q 348 822 312 786 q 433 879 384 858 q 543 901 481 901 q 614 893 583 901 q 672 871 645 885 q 724 836 700 857 q 776 788 748 814 l 845 850 q 793 920 826 889 q 720 971 761 951 q 636 1003 680 992 q 551 1015 593 1015 q 387 985 459 1015 q 261 904 315 955 q 173 785 208 854 q 122 638 138 717 l 101 638 q 63 624 81 638 q 37 592 44 611 q 39 558 30 572 q 68 545 48 545 l 108 545 q 106 517 106 531 q 106 490 106 504 l 106 463 l 27 463 "},"":{"x_min":-19.453125,"x_max":825.0625,"ha":763,"o":"m 825 1126 l 695 1126 l 345 180 l 172 661 l -19 594 l -2 540 l 81 570 l 298 -27 l 343 -27 l 745 1061 l 825 1061 l 825 1126 "},"4":{"x_min":36.109375,"x_max":713.953125,"ha":756,"o":"m 501 1014 q 449 999 473 1014 q 409 961 425 985 l 59 369 q 44 343 52 358 q 36 313 36 328 q 43 281 36 292 q 63 265 51 271 q 91 259 76 260 q 122 259 106 259 l 487 259 l 487 -2 l 601 -2 l 601 260 q 634 260 615 260 q 672 264 654 260 q 702 279 690 268 q 713 313 713 290 q 702 346 713 335 q 673 362 690 357 q 637 367 657 367 q 604 367 618 367 l 604 898 q 577 980 604 946 q 501 1014 551 1014 m 183 367 l 486 904 l 486 367 l 183 367 "},"p":{"x_min":88.890625,"x_max":734.78125,"ha":786,"o":"m 88 -295 l 205 -295 l 205 90 q 297 11 241 39 q 416 -15 354 -15 q 555 19 495 -15 q 654 109 615 54 q 714 235 694 165 q 734 376 734 305 q 713 512 734 444 q 653 633 693 580 q 555 719 613 686 q 420 753 497 753 q 297 723 355 753 q 204 639 240 694 q 204 677 204 657 q 200 714 205 697 q 183 741 195 730 q 144 751 170 751 q 104 732 120 751 q 88 690 88 712 l 88 -295 m 200 363 q 203 440 200 402 q 218 511 206 477 q 252 574 230 545 q 312 623 275 602 q 409 650 361 650 q 502 622 463 650 q 565 554 541 595 q 600 463 588 512 q 611 368 611 413 q 599 271 611 320 q 562 182 587 222 q 497 118 537 143 q 404 93 458 93 q 309 117 348 93 q 246 180 270 141 q 211 267 222 219 q 200 363 200 315 "},"‡":{"x_min":53.859375,"x_max":848.296875,"ha":901,"o":"m 391 158 l 112 156 q 71 140 88 156 q 53 100 53 123 q 71 59 53 76 q 112 43 88 43 l 391 43 l 392 -252 q 408 -294 392 -276 q 449 -312 424 -312 q 490 -295 476 -312 q 505 -252 505 -277 l 505 43 l 785 43 q 827 59 809 43 q 845 100 845 75 q 827 140 845 123 q 785 158 809 158 l 508 156 l 508 538 l 785 538 q 828 555 809 538 q 848 597 848 572 q 829 636 848 620 q 787 652 810 652 l 506 652 l 506 948 q 490 991 506 972 q 449 1009 474 1009 q 409 991 424 1009 q 394 950 394 973 l 391 654 l 113 654 q 74 638 91 654 q 56 598 56 622 q 74 556 56 575 q 114 538 91 538 l 390 538 l 391 158 "},"à":{"x_min":50.390625,"x_max":699,"ha":788,"o":"m 547 852 q 536 885 547 870 q 509 907 526 900 q 463 925 494 912 q 398 952 433 938 q 333 977 363 966 q 290 987 302 987 q 251 972 266 987 q 236 934 236 958 q 246 901 236 915 q 273 880 256 887 q 318 861 287 875 q 384 834 350 848 q 449 810 419 820 q 491 800 479 800 q 531 814 515 800 q 547 852 547 829 m 582 654 q 488 727 543 702 q 372 752 433 752 q 235 719 294 752 q 134 632 175 686 q 71 511 93 579 q 50 372 50 443 q 71 231 50 300 q 132 108 92 162 q 233 20 172 54 q 372 -12 293 -12 q 492 15 437 -12 q 581 101 547 44 l 581 -5 l 699 -5 l 699 694 q 683 734 699 716 q 643 752 667 752 q 605 743 618 752 q 588 720 593 734 q 583 689 583 707 q 582 654 582 672 m 175 373 q 186 471 175 422 q 223 561 198 520 q 288 626 248 601 q 386 651 329 651 q 482 627 444 651 q 543 564 520 602 q 575 477 566 526 q 584 381 584 429 q 576 277 584 329 q 545 183 568 225 q 481 115 522 141 q 379 88 441 88 q 282 115 322 88 q 219 182 243 141 q 185 274 195 223 q 175 373 175 325 "},"Ü":{"x_min":88.890625,"x_max":859.796875,"ha":949,"o":"m 293 1022 q 311 970 293 991 q 362 950 330 950 q 412 970 391 950 q 433 1022 433 991 q 413 1071 433 1050 q 363 1093 393 1093 q 313 1072 334 1093 q 293 1022 293 1051 m 515 1020 q 536 971 515 993 q 584 950 556 950 q 634 970 613 950 q 655 1020 655 991 q 634 1070 655 1050 q 584 1091 613 1091 q 534 1070 554 1091 q 515 1020 515 1050 m 88 354 q 118 201 88 269 q 199 85 147 133 q 321 11 251 37 q 475 -13 391 -13 q 627 11 556 -13 q 750 85 698 37 q 830 201 801 133 q 859 354 859 269 l 859 948 q 841 991 859 973 q 800 1009 823 1009 q 757 991 773 1009 q 740 948 740 973 l 740 352 q 720 244 740 293 q 666 161 701 195 q 582 109 632 127 q 475 90 533 90 q 366 109 415 90 q 281 161 316 127 q 227 244 247 195 q 208 352 208 293 l 208 1004 l 88 1004 l 88 354 "},"ó":{"x_min":51.390625,"x_max":707,"ha":760,"o":"m 51 372 q 72 230 51 300 q 136 106 94 161 q 240 18 179 51 q 380 -15 301 -15 q 519 18 458 -15 q 622 106 580 51 q 685 230 663 161 q 707 370 707 300 q 684 511 707 443 q 620 634 662 580 q 518 720 579 687 q 379 752 456 752 q 240 720 301 752 q 137 634 179 687 q 73 511 95 580 q 51 372 51 443 m 480 987 q 438 977 468 987 q 373 952 408 966 q 307 925 338 938 q 262 907 276 912 q 235 885 245 900 q 225 852 225 870 q 241 813 225 829 q 281 798 258 798 q 324 809 294 798 q 388 833 354 819 q 453 860 422 847 q 498 879 484 873 q 525 900 515 886 q 536 933 536 915 q 520 972 536 957 q 480 987 504 987 m 176 370 q 187 465 176 416 q 222 554 198 513 q 285 622 247 595 q 377 648 323 648 q 472 622 433 648 q 536 557 511 597 q 572 468 561 518 q 583 372 583 419 q 572 273 583 323 q 536 182 561 223 q 472 115 512 141 q 376 90 433 90 q 284 116 322 90 q 222 184 245 143 q 187 275 198 226 q 176 370 176 325 "},"\u001a":{"x_min":126.40625,"x_max":629.21875,"ha":757,"o":"m 313 352 l 140 179 q 126 145 126 165 q 140 113 126 126 q 173 100 154 100 q 205 112 193 100 l 379 284 l 547 116 q 581 102 561 102 q 615 115 601 102 q 629 148 629 129 q 615 181 629 168 l 445 351 l 615 520 q 629 553 629 534 q 616 587 629 573 q 583 601 602 601 q 548 585 563 601 l 379 417 l 209 587 q 175 601 195 601 q 142 588 155 601 q 129 556 129 576 q 143 523 129 537 l 313 352 "},"\r":{"x_min":90.28125,"x_max":206.96875,"ha":297,"o":"m 90 -1 l 206 -1 l 206 694 q 190 734 206 716 q 151 753 175 753 q 108 737 126 753 q 90 694 90 721 l 90 -1 "}}}
